<?xml version="1.0" encoding="utf-8"?>
<!-- Generator: Adobe Illustrator 27.5.0, SVG Export Plug-In . SVG Version: 6.00 Build 0)  -->
<svg version="1.1" xmlns="http://www.w3.org/2000/svg" xmlns:xlink="http://www.w3.org/1999/xlink" x="0px" y="0px"
	 viewBox="0 0 500 500" style="enable-background:new 0 0 500 500;" xml:space="preserve">
<g id="BACKGROUND">
	<rect style="fill:#95E1EF;" width="500" height="500"/>
	<rect y="408.042" style="fill:#63B2C1;" width="500" height="91.958"/>
</g>
<g id="OBJECTS">
	<g>
		<path style="fill:#63B2C1;" d="M157.399,275.946c-0.725,0-1.448-0.008-2.169-0.022c-0.155-0.003-0.279-0.132-0.275-0.287
			c0.003-0.155,0.131-0.244,0.287-0.275c0.717,0.015,1.436,0.022,2.157,0.022l0.648-0.002c0,0,0.001,0,0.001,0
			c0.155,0,0.281,0.125,0.281,0.28c0.001,0.155-0.124,0.281-0.28,0.282L157.399,275.946z M163.671,275.759
			c-0.148,0-0.271-0.115-0.28-0.265c-0.009-0.154,0.109-0.288,0.264-0.298c0.936-0.056,1.869-0.125,2.797-0.207
			c0.157-0.02,0.292,0.101,0.305,0.256c0.014,0.154-0.1,0.291-0.255,0.305c-0.935,0.082-1.872,0.151-2.813,0.209
			C163.683,275.759,163.677,275.759,163.671,275.759z M149.62,275.656c-0.007,0-0.014,0-0.021-0.001
			c-0.94-0.07-1.877-0.153-2.81-0.249c-0.155-0.017-0.267-0.154-0.251-0.309c0.016-0.155,0.157-0.268,0.309-0.252
			c0.928,0.096,1.859,0.179,2.794,0.249c0.155,0.012,0.271,0.147,0.26,0.302C149.889,275.544,149.765,275.656,149.62,275.656z
			 M172.063,274.904c-0.138,0-0.258-0.101-0.278-0.241c-0.023-0.154,0.084-0.297,0.238-0.318c0.928-0.134,1.852-0.278,2.772-0.436
			c0.145-0.025,0.299,0.076,0.325,0.229c0.026,0.153-0.077,0.299-0.23,0.325c-0.924,0.158-1.853,0.305-2.786,0.439
			C172.089,274.903,172.076,274.904,172.063,274.904z M141.241,274.68c-0.015,0-0.03-0.001-0.044-0.003
			c-0.931-0.148-1.857-0.308-2.78-0.48c-0.153-0.028-0.253-0.176-0.225-0.328c0.028-0.152,0.177-0.258,0.328-0.225
			c0.917,0.171,1.839,0.33,2.764,0.477c0.154,0.024,0.258,0.169,0.234,0.322C141.496,274.581,141.376,274.68,141.241,274.68z
			 M180.355,273.365c-0.128,0-0.244-0.088-0.274-0.219c-0.035-0.151,0.06-0.302,0.212-0.337c0.913-0.209,1.822-0.431,2.726-0.664
			c0.152-0.038,0.304,0.052,0.343,0.202c0.039,0.15-0.052,0.304-0.202,0.343c-0.909,0.235-1.822,0.457-2.741,0.668
			C180.397,273.363,180.376,273.365,180.355,273.365z M132.971,273.017c-0.022,0-0.044-0.003-0.067-0.008
			c-0.915-0.225-1.825-0.46-2.731-0.709c-0.15-0.041-0.238-0.196-0.197-0.346c0.042-0.149,0.195-0.236,0.346-0.197
			c0.9,0.247,1.805,0.482,2.715,0.705c0.151,0.037,0.243,0.189,0.206,0.341C133.212,272.931,133.098,273.017,132.971,273.017z
			 M188.494,271.143c-0.12,0-0.23-0.076-0.268-0.196c-0.047-0.147,0.035-0.306,0.183-0.353c0.892-0.283,1.779-0.579,2.661-0.887
			c0.146-0.053,0.307,0.025,0.358,0.173c0.051,0.146-0.026,0.308-0.173,0.358c-0.886,0.31-1.778,0.607-2.676,0.893
			C188.551,271.139,188.522,271.143,188.494,271.143z M124.867,270.674c-0.03,0-0.06-0.005-0.089-0.015
			c-0.896-0.3-1.786-0.611-2.671-0.935c-0.146-0.054-0.221-0.216-0.167-0.361c0.053-0.147,0.215-0.221,0.361-0.168
			c0.88,0.323,1.765,0.633,2.656,0.931c0.147,0.049,0.226,0.208,0.177,0.355C125.094,270.6,124.984,270.674,124.867,270.674z
			 M196.42,268.254c-0.11,0-0.215-0.065-0.26-0.174c-0.059-0.144,0.009-0.309,0.153-0.367c0.863-0.355,1.72-0.723,2.57-1.101
			c0.143-0.064,0.308,0.001,0.372,0.143c0.063,0.142-0.001,0.309-0.143,0.371c-0.855,0.38-1.717,0.749-2.585,1.106
			C196.492,268.247,196.456,268.254,196.42,268.254z M116.966,267.66c-0.037,0-0.075-0.007-0.111-0.022
			c-0.867-0.373-1.728-0.757-2.582-1.153c-0.141-0.065-0.203-0.232-0.137-0.373c0.065-0.141,0.234-0.205,0.374-0.137
			c0.85,0.393,1.706,0.774,2.568,1.145c0.143,0.062,0.208,0.228,0.147,0.37C117.179,267.597,117.075,267.66,116.966,267.66z
			 M204.063,264.729c-0.102,0-0.201-0.056-0.25-0.153c-0.071-0.138-0.016-0.308,0.122-0.378c0.832-0.426,1.656-0.863,2.473-1.312
			c0.136-0.073,0.308-0.024,0.382,0.112c0.075,0.136,0.025,0.307-0.111,0.382c-0.822,0.45-1.651,0.89-2.487,1.317
			C204.151,264.72,204.107,264.729,204.063,264.729z M109.348,264.004c-0.045,0-0.09-0.011-0.132-0.033
			c-0.832-0.442-1.658-0.896-2.476-1.361c-0.135-0.076-0.182-0.248-0.105-0.383c0.077-0.135,0.25-0.184,0.384-0.105
			c0.813,0.462,1.634,0.913,2.462,1.354c0.137,0.072,0.189,0.243,0.116,0.38C109.545,263.95,109.448,264.004,109.348,264.004z
			 M211.395,260.582c-0.094,0-0.186-0.047-0.24-0.133c-0.082-0.132-0.041-0.306,0.091-0.388c0.794-0.492,1.58-0.996,2.358-1.51
			c0.13-0.088,0.305-0.05,0.39,0.079c0.085,0.13,0.05,0.305-0.08,0.39c-0.783,0.518-1.574,1.023-2.372,1.52
			C211.497,260.568,211.446,260.582,211.395,260.582z M102.06,259.734c-0.052,0-0.104-0.015-0.152-0.045
			c-0.792-0.509-1.577-1.029-2.354-1.559c-0.128-0.088-0.161-0.263-0.074-0.391c0.087-0.128,0.26-0.162,0.391-0.074
			c0.772,0.527,1.553,1.044,2.341,1.551c0.13,0.084,0.168,0.258,0.084,0.389C102.244,259.689,102.153,259.734,102.06,259.734z
			 M218.365,255.846c-0.086,0-0.171-0.039-0.226-0.113c-0.092-0.125-0.066-0.302,0.059-0.394c0.751-0.558,1.493-1.124,2.228-1.701
			c0.123-0.095,0.3-0.074,0.395,0.048c0.096,0.122,0.075,0.299-0.047,0.396c-0.739,0.579-1.486,1.149-2.241,1.709
			C218.482,255.828,218.423,255.846,218.365,255.846z M95.153,254.879c-0.06,0-0.12-0.019-0.171-0.058
			c-0.747-0.572-1.486-1.154-2.217-1.747c-0.121-0.098-0.139-0.275-0.042-0.396c0.098-0.123,0.275-0.14,0.396-0.042
			c0.727,0.589,1.461,1.169,2.205,1.737c0.124,0.095,0.147,0.271,0.053,0.395C95.321,254.841,95.237,254.879,95.153,254.879z
			 M224.927,250.551c-0.078,0-0.156-0.032-0.211-0.096c-0.103-0.117-0.091-0.294,0.026-0.397c0.703-0.617,1.397-1.243,2.083-1.878
			c0.115-0.105,0.293-0.097,0.398,0.015c0.105,0.114,0.099,0.292-0.015,0.398c-0.689,0.638-1.388,1.267-2.095,1.888
			C225.059,250.528,224.993,250.551,224.927,250.551z M88.668,249.478c-0.067,0-0.135-0.024-0.189-0.073
			c-0.697-0.631-1.385-1.271-2.065-1.921c-0.112-0.107-0.116-0.286-0.009-0.398c0.108-0.114,0.285-0.116,0.398-0.009
			c0.676,0.646,1.361,1.283,2.055,1.911c0.115,0.104,0.124,0.282,0.02,0.397C88.821,249.447,88.745,249.478,88.668,249.478z
			 M231.035,244.735c-0.07,0-0.141-0.026-0.196-0.079c-0.111-0.108-0.114-0.286-0.006-0.398c0.65-0.672,1.292-1.352,1.924-2.042
			c0.106-0.114,0.283-0.122,0.398-0.018c0.115,0.105,0.123,0.283,0.018,0.398c-0.636,0.693-1.28,1.378-1.935,2.054
			C231.182,244.706,231.109,244.735,231.035,244.735z M82.649,243.566c-0.075,0-0.15-0.03-0.205-0.089
			c-0.643-0.685-1.276-1.379-1.901-2.082c-0.103-0.116-0.093-0.294,0.023-0.397c0.116-0.102,0.295-0.093,0.397,0.023
			c0.621,0.699,1.251,1.39,1.89,2.071c0.106,0.113,0.101,0.291-0.013,0.397C82.788,243.542,82.718,243.566,82.649,243.566z
			 M236.651,238.437c-0.063,0-0.126-0.021-0.179-0.064c-0.12-0.099-0.137-0.276-0.039-0.396c0.593-0.723,1.177-1.454,1.751-2.194
			c0.095-0.124,0.271-0.146,0.395-0.05c0.123,0.095,0.145,0.272,0.05,0.395c-0.577,0.744-1.164,1.479-1.761,2.207
			C236.813,238.402,236.732,238.437,236.651,238.437z M77.137,237.185c-0.083,0-0.165-0.036-0.22-0.106
			c-0.584-0.735-1.158-1.479-1.724-2.23c-0.093-0.124-0.068-0.3,0.056-0.394c0.124-0.093,0.3-0.069,0.394,0.056
			c0.562,0.748,1.133,1.487,1.714,2.217c0.097,0.122,0.077,0.299-0.045,0.395C77.26,237.165,77.198,237.185,77.137,237.185z
			 M241.733,231.698c-0.056,0-0.111-0.016-0.16-0.05c-0.128-0.088-0.16-0.264-0.071-0.392c0.533-0.77,1.055-1.547,1.566-2.331
			c0.085-0.129,0.258-0.168,0.39-0.082c0.13,0.085,0.167,0.259,0.082,0.39c-0.514,0.789-1.039,1.57-1.575,2.344
			C241.91,231.656,241.822,231.698,241.733,231.698z M72.166,230.376c-0.091,0-0.18-0.044-0.234-0.125
			c-0.521-0.78-1.033-1.567-1.533-2.362c-0.083-0.131-0.043-0.305,0.088-0.388c0.131-0.085,0.305-0.044,0.388,0.088
			c0.499,0.79,1.007,1.573,1.525,2.349c0.086,0.129,0.052,0.304-0.078,0.39C72.274,230.361,72.22,230.376,72.166,230.376z
			 M246.247,224.56c-0.047,0-0.096-0.012-0.14-0.038c-0.134-0.078-0.181-0.25-0.103-0.384c0.467-0.811,0.924-1.629,1.369-2.454
			c0.074-0.136,0.245-0.187,0.381-0.114c0.137,0.074,0.188,0.245,0.114,0.381c-0.448,0.83-0.907,1.652-1.377,2.468
			C246.439,224.51,246.345,224.56,246.247,224.56z M67.774,223.188c-0.099,0-0.195-0.052-0.247-0.145
			c-0.455-0.819-0.9-1.645-1.333-2.478c-0.072-0.138-0.018-0.308,0.12-0.379c0.137-0.071,0.307-0.018,0.379,0.12
			c0.431,0.828,0.873,1.65,1.326,2.464c0.075,0.136,0.026,0.307-0.109,0.383C67.867,223.176,67.82,223.188,67.774,223.188z
			 M250.159,217.072c-0.04,0-0.081-0.008-0.12-0.027c-0.14-0.066-0.201-0.234-0.134-0.374c0.399-0.847,0.787-1.701,1.163-2.561
			c0.061-0.143,0.23-0.208,0.37-0.145c0.143,0.062,0.208,0.228,0.145,0.371c-0.378,0.865-0.768,1.723-1.169,2.575
			C250.366,217.013,250.265,217.072,250.159,217.072z M63.99,215.665c-0.107,0-0.209-0.061-0.256-0.165
			c-0.386-0.852-0.76-1.712-1.123-2.577c-0.06-0.143,0.007-0.308,0.15-0.368c0.142-0.06,0.308,0.006,0.368,0.15
			c0.361,0.86,0.734,1.715,1.118,2.563c0.064,0.141,0.001,0.308-0.14,0.372C64.068,215.657,64.029,215.665,63.99,215.665z
			 M253.438,209.282c-0.033,0-0.066-0.005-0.099-0.018c-0.146-0.055-0.22-0.217-0.165-0.362c0.328-0.878,0.644-1.761,0.947-2.65
			c0.05-0.147,0.21-0.225,0.357-0.175c0.148,0.05,0.226,0.21,0.176,0.357c-0.306,0.895-0.623,1.783-0.953,2.665
			C253.66,209.212,253.553,209.282,253.438,209.282z M60.841,207.861c-0.116,0-0.224-0.072-0.265-0.187
			c-0.315-0.884-0.618-1.774-0.91-2.669c-0.048-0.148,0.033-0.307,0.181-0.355c0.148-0.048,0.307,0.033,0.354,0.181
			c0.29,0.891,0.592,1.776,0.905,2.655c0.052,0.146-0.024,0.307-0.171,0.359C60.904,207.856,60.873,207.861,60.841,207.861z
			 M256.06,201.253c-0.025,0-0.051-0.003-0.076-0.01c-0.149-0.042-0.236-0.197-0.194-0.347c0.252-0.898,0.492-1.802,0.721-2.71
			c0.036-0.151,0.19-0.244,0.341-0.204c0.15,0.038,0.242,0.191,0.204,0.341c-0.228,0.913-0.471,1.823-0.725,2.726
			C256.296,201.172,256.183,201.253,256.06,201.253z M58.343,199.805c-0.125,0-0.239-0.083-0.272-0.209
			c-0.24-0.907-0.469-1.82-0.685-2.736c-0.036-0.151,0.058-0.303,0.209-0.338c0.15-0.034,0.303,0.058,0.338,0.21
			c0.215,0.912,0.442,1.818,0.681,2.721c0.04,0.15-0.05,0.304-0.2,0.344C58.391,199.802,58.367,199.805,58.343,199.805z
			 M258.002,193.045c-0.018,0-0.035-0.001-0.054-0.005c-0.152-0.03-0.252-0.177-0.223-0.33c0.178-0.916,0.342-1.836,0.495-2.761
			c0.024-0.153,0.161-0.266,0.323-0.231c0.153,0.025,0.257,0.17,0.232,0.323c-0.153,0.93-0.319,1.855-0.497,2.776
			C258.252,192.952,258.135,193.045,258.002,193.045z M56.521,191.568c-0.134,0-0.252-0.096-0.276-0.232
			c-0.164-0.923-0.317-1.851-0.456-2.784c-0.023-0.153,0.083-0.297,0.237-0.32c0.15-0.018,0.296,0.083,0.32,0.237
			c0.139,0.927,0.29,1.85,0.454,2.768c0.027,0.153-0.075,0.299-0.228,0.326C56.554,191.567,56.538,191.568,56.521,191.568z
			 M259.262,184.704c-0.01,0-0.021-0.001-0.03-0.001c-0.154-0.017-0.267-0.156-0.249-0.311c0.101-0.927,0.19-1.858,0.266-2.793
			c0.013-0.154,0.134-0.272,0.303-0.257c0.155,0.012,0.271,0.148,0.258,0.303c-0.076,0.94-0.165,1.876-0.268,2.808
			C259.525,184.598,259.403,184.704,259.262,184.704z M55.385,183.21c-0.144,0-0.266-0.109-0.28-0.255
			c-0.088-0.934-0.164-1.871-0.226-2.812c-0.01-0.155,0.107-0.289,0.262-0.299c0.147-0.021,0.289,0.107,0.299,0.262
			c0.063,0.935,0.137,1.867,0.225,2.796c0.015,0.155-0.099,0.292-0.254,0.307C55.403,183.21,55.394,183.21,55.385,183.21z
			 M259.831,176.289c-0.002,0-0.005,0-0.008,0c-0.155-0.004-0.277-0.134-0.273-0.289c0.025-0.932,0.038-1.867,0.038-2.805
			c-0.001-0.872-0.012-1.743-0.033-2.61c-0.004-0.155,0.119-0.284,0.274-0.288c0.165,0.013,0.284,0.119,0.288,0.274
			c0.022,0.872,0.032,1.747,0.033,2.624c0,0.943-0.013,1.883-0.038,2.821C260.108,176.167,259.983,176.289,259.831,176.289z
			 M54.937,174.786c-0.154,0-0.279-0.124-0.281-0.278c-0.005-0.437-0.008-0.875-0.008-1.314c0-0.503,0.004-1.005,0.011-1.506
			c0.002-0.154,0.128-0.277,0.281-0.277c0.001,0,0.003,0,0.004,0c0.156,0.003,0.28,0.13,0.277,0.285
			c-0.007,0.499-0.011,0.999-0.011,1.499c0,0.437,0.002,0.872,0.008,1.307c0.002,0.155-0.123,0.283-0.278,0.285
			C54.939,174.786,54.938,174.786,54.937,174.786z M55.173,166.354c-0.007,0-0.013,0-0.02-0.001c-0.155-0.011-0.272-0.145-0.261-0.3
			c0.065-0.94,0.142-1.877,0.232-2.811c0.016-0.155,0.157-0.262,0.307-0.253c0.155,0.015,0.268,0.153,0.253,0.307
			c-0.09,0.929-0.167,1.861-0.231,2.796C55.443,166.241,55.32,166.354,55.173,166.354z M259.543,165.242
			c-0.146,0-0.269-0.111-0.28-0.259c-0.075-0.935-0.162-1.866-0.261-2.794c-0.017-0.154,0.095-0.293,0.249-0.309
			c0.17-0.013,0.294,0.096,0.309,0.25c0.101,0.932,0.188,1.868,0.263,2.808c0.013,0.155-0.102,0.29-0.258,0.303
			C259.558,165.242,259.55,165.242,259.543,165.242z M56.095,157.969c-0.014,0-0.028-0.001-0.043-0.003
			c-0.153-0.023-0.259-0.167-0.236-0.321c0.142-0.932,0.295-1.859,0.462-2.783c0.028-0.153,0.174-0.254,0.327-0.227
			c0.153,0.028,0.254,0.174,0.227,0.327c-0.166,0.918-0.319,1.84-0.459,2.767C56.352,157.87,56.232,157.969,56.095,157.969z
			 M258.53,156.869c-0.136,0-0.255-0.098-0.277-0.236c-0.15-0.925-0.313-1.846-0.489-2.762c-0.029-0.152,0.071-0.3,0.224-0.329
			c0.151-0.029,0.3,0.071,0.329,0.224c0.176,0.921,0.341,1.847,0.491,2.778c0.025,0.153-0.079,0.298-0.232,0.323
			C258.56,156.868,258.545,156.869,258.53,156.869z M57.705,149.689c-0.022,0-0.044-0.003-0.066-0.007
			c-0.151-0.036-0.245-0.188-0.209-0.339c0.218-0.917,0.448-1.829,0.69-2.735c0.04-0.15,0.19-0.239,0.345-0.199
			c0.15,0.04,0.239,0.194,0.199,0.345c-0.241,0.902-0.47,1.808-0.687,2.72C57.948,149.602,57.832,149.689,57.705,149.689z
			 M256.83,148.606c-0.126,0-0.241-0.086-0.274-0.213c-0.226-0.909-0.465-1.813-0.716-2.712c-0.041-0.15,0.046-0.305,0.196-0.347
			c0.154-0.039,0.305,0.047,0.347,0.195c0.251,0.904,0.491,1.813,0.72,2.727c0.037,0.151-0.055,0.304-0.205,0.341
			C256.875,148.604,256.853,148.606,256.83,148.606z M59.994,141.57c-0.029,0-0.059-0.004-0.087-0.014
			c-0.148-0.048-0.229-0.208-0.18-0.355c0.294-0.898,0.6-1.791,0.918-2.678c0.052-0.146,0.214-0.222,0.36-0.169
			c0.146,0.052,0.222,0.213,0.169,0.36c-0.316,0.881-0.621,1.769-0.913,2.662C60.223,141.495,60.113,141.57,59.994,141.57z
			 M254.452,140.513c-0.117,0-0.226-0.074-0.267-0.19c-0.302-0.887-0.614-1.769-0.938-2.644c-0.054-0.146,0.02-0.308,0.166-0.361
			c0.147-0.054,0.308,0.021,0.361,0.166c0.326,0.88,0.641,1.766,0.944,2.658c0.05,0.148-0.029,0.307-0.176,0.357
			C254.513,140.508,254.482,140.513,254.452,140.513z M62.956,133.65c-0.037,0-0.074-0.007-0.109-0.022
			c-0.143-0.061-0.21-0.226-0.15-0.369c0.367-0.87,0.746-1.733,1.136-2.59c0.064-0.142,0.23-0.206,0.373-0.139
			c0.141,0.064,0.204,0.231,0.139,0.372c-0.388,0.853-0.764,1.711-1.129,2.576C63.17,133.586,63.065,133.65,62.956,133.65z
			 M251.416,132.654c-0.108,0-0.212-0.063-0.258-0.169c-0.373-0.856-0.756-1.706-1.151-2.549c-0.066-0.141-0.005-0.308,0.136-0.374
			c0.139-0.067,0.308-0.005,0.374,0.136c0.396,0.848,0.782,1.702,1.157,2.563c0.063,0.143-0.003,0.308-0.146,0.37
			C251.492,132.647,251.454,132.654,251.416,132.654z M66.563,126.007c-0.045,0-0.089-0.01-0.13-0.032
			c-0.138-0.072-0.191-0.242-0.119-0.379c0.437-0.835,0.886-1.664,1.345-2.485c0.077-0.135,0.247-0.185,0.383-0.108
			c0.136,0.076,0.184,0.247,0.108,0.383c-0.458,0.817-0.903,1.641-1.338,2.472C66.763,125.953,66.665,126.007,66.563,126.007z
			 M247.743,125.079c-0.101,0-0.198-0.054-0.249-0.148c-0.442-0.823-0.895-1.639-1.357-2.448c-0.077-0.135-0.03-0.307,0.105-0.384
			c0.135-0.078,0.308-0.03,0.384,0.104c0.466,0.813,0.92,1.634,1.365,2.461c0.073,0.137,0.022,0.308-0.115,0.381
			C247.833,125.068,247.788,125.079,247.743,125.079z M70.787,118.693c-0.051,0-0.104-0.014-0.15-0.043
			c-0.131-0.084-0.17-0.257-0.087-0.388c0.504-0.796,1.02-1.584,1.545-2.365c0.087-0.128,0.261-0.163,0.391-0.076
			c0.129,0.087,0.163,0.262,0.076,0.391c-0.522,0.776-1.035,1.56-1.536,2.351C70.971,118.647,70.88,118.693,70.787,118.693z
			 M243.457,117.827c-0.092,0-0.183-0.045-0.237-0.128c-0.508-0.784-1.026-1.561-1.555-2.329c-0.088-0.128-0.056-0.303,0.072-0.392
			c0.129-0.087,0.304-0.054,0.392,0.072c0.532,0.773,1.053,1.554,1.564,2.343c0.084,0.13,0.047,0.305-0.083,0.389
			C243.562,117.813,243.509,117.827,243.457,117.827z M75.597,111.753c-0.059,0-0.119-0.019-0.17-0.057
			c-0.124-0.094-0.149-0.27-0.055-0.394c0.567-0.751,1.146-1.494,1.733-2.229c0.098-0.121,0.276-0.141,0.396-0.044
			c0.121,0.097,0.141,0.274,0.044,0.396c-0.584,0.731-1.159,1.47-1.723,2.216C75.766,111.715,75.682,111.753,75.597,111.753z
			 M238.586,110.949c-0.084,0-0.167-0.038-0.223-0.109c-0.571-0.741-1.152-1.473-1.742-2.196c-0.098-0.12-0.08-0.297,0.04-0.396
			c0.121-0.098,0.297-0.08,0.396,0.04c0.593,0.728,1.177,1.463,1.751,2.208c0.095,0.123,0.072,0.3-0.051,0.395
			C238.707,110.93,238.646,110.949,238.586,110.949z M80.957,105.234c-0.067,0-0.134-0.023-0.188-0.071
			c-0.116-0.104-0.126-0.282-0.022-0.397c0.627-0.701,1.263-1.394,1.908-2.078c0.106-0.114,0.284-0.119,0.397-0.012
			c0.113,0.106,0.119,0.285,0.012,0.397c-0.642,0.681-1.274,1.37-1.897,2.067C81.112,105.202,81.035,105.234,80.957,105.234z
			 M233.168,104.488c-0.076,0-0.152-0.031-0.208-0.092c-0.63-0.691-1.269-1.374-1.917-2.047c-0.108-0.112-0.105-0.29,0.007-0.398
			c0.111-0.108,0.289-0.105,0.398,0.007c0.652,0.677,1.294,1.363,1.928,2.059c0.104,0.115,0.096,0.293-0.019,0.397
			C233.304,104.464,233.236,104.488,233.168,104.488z M86.831,99.178c-0.074,0-0.148-0.029-0.204-0.087
			c-0.107-0.113-0.103-0.291,0.01-0.398c0.681-0.647,1.372-1.285,2.07-1.914c0.115-0.104,0.294-0.095,0.397,0.021
			c0.104,0.115,0.095,0.293-0.021,0.397c-0.695,0.626-1.381,1.26-2.059,1.904C86.97,99.152,86.9,99.178,86.831,99.178z
			 M227.236,98.489c-0.069,0-0.138-0.025-0.192-0.075c-0.684-0.638-1.377-1.266-2.079-1.885c-0.117-0.102-0.128-0.281-0.025-0.397
			c0.103-0.116,0.282-0.128,0.397-0.025c0.706,0.622,1.402,1.254,2.09,1.895c0.114,0.106,0.12,0.284,0.014,0.398
			C227.387,98.46,227.311,98.489,227.236,98.489z M93.177,93.624c-0.082,0-0.164-0.036-0.219-0.105
			c-0.097-0.121-0.078-0.298,0.043-0.396c0.731-0.589,1.471-1.168,2.218-1.737c0.122-0.094,0.3-0.071,0.394,0.053
			c0.094,0.124,0.07,0.3-0.053,0.394c-0.743,0.566-1.479,1.143-2.207,1.728C93.301,93.604,93.239,93.624,93.177,93.624z
			 M220.832,92.995c-0.061,0-0.122-0.02-0.174-0.061c-0.734-0.58-1.477-1.149-2.227-1.709c-0.125-0.093-0.15-0.269-0.058-0.394
			c0.092-0.125,0.27-0.149,0.394-0.058c0.755,0.563,1.502,1.136,2.24,1.719c0.122,0.096,0.143,0.273,0.046,0.395
			C220.998,92.959,220.915,92.995,220.832,92.995z M99.954,88.61c-0.09,0-0.179-0.043-0.233-0.123
			c-0.087-0.129-0.054-0.304,0.075-0.391c0.776-0.527,1.56-1.043,2.352-1.549c0.131-0.084,0.304-0.045,0.388,0.085
			c0.084,0.131,0.046,0.305-0.085,0.388c-0.787,0.504-1.567,1.017-2.339,1.541C100.063,88.595,100.008,88.61,99.954,88.61z
			 M213.996,88.04c-0.053,0-0.107-0.015-0.155-0.047c-0.78-0.518-1.567-1.024-2.361-1.521c-0.131-0.083-0.171-0.256-0.089-0.388
			c0.083-0.132,0.255-0.172,0.388-0.09c0.798,0.499,1.589,1.009,2.374,1.53c0.129,0.086,0.165,0.26,0.079,0.39
			C214.177,87.997,214.087,88.04,213.996,88.04z M107.115,84.171c-0.099,0-0.194-0.051-0.246-0.143
			c-0.076-0.135-0.028-0.307,0.107-0.383c0.816-0.46,1.639-0.911,2.47-1.349c0.137-0.073,0.308-0.021,0.38,0.117
			c0.073,0.137,0.021,0.308-0.117,0.38c-0.826,0.437-1.644,0.884-2.456,1.342C107.209,84.16,107.162,84.171,107.115,84.171z
			 M206.774,83.665c-0.046,0-0.092-0.011-0.135-0.035c-0.82-0.453-1.647-0.893-2.481-1.323c-0.138-0.071-0.192-0.241-0.121-0.379
			s0.241-0.192,0.379-0.121c0.838,0.432,1.67,0.875,2.494,1.33c0.136,0.075,0.185,0.247,0.111,0.382
			C206.97,83.612,206.873,83.665,206.774,83.665z M114.613,80.339c-0.107,0-0.208-0.061-0.255-0.164
			c-0.065-0.141-0.003-0.308,0.138-0.373c0.851-0.392,1.708-0.771,2.57-1.141c0.143-0.06,0.308,0.005,0.37,0.148
			c0.061,0.143-0.005,0.309-0.148,0.37c-0.858,0.367-1.71,0.745-2.556,1.134C114.692,80.331,114.652,80.339,114.613,80.339z
			 M199.211,79.896c-0.038,0-0.078-0.008-0.115-0.024c-0.855-0.383-1.716-0.754-2.583-1.113c-0.144-0.06-0.211-0.224-0.152-0.368
			c0.06-0.144,0.223-0.211,0.368-0.152c0.872,0.361,1.738,0.734,2.597,1.119c0.142,0.063,0.205,0.23,0.142,0.372
			C199.421,79.835,199.319,79.896,199.211,79.896z M122.396,77.14c-0.115,0-0.223-0.071-0.265-0.185
			c-0.053-0.146,0.022-0.308,0.169-0.361c0.882-0.32,1.77-0.629,2.664-0.927c0.151-0.049,0.307,0.031,0.356,0.178
			c0.049,0.147-0.031,0.307-0.178,0.356c-0.889,0.295-1.772,0.603-2.65,0.922C122.461,77.135,122.428,77.14,122.396,77.14z
			 M191.357,76.767c-0.031,0-0.063-0.005-0.093-0.016c-0.884-0.311-1.773-0.609-2.669-0.896c-0.148-0.047-0.229-0.206-0.182-0.354
			c0.047-0.148,0.202-0.23,0.354-0.182c0.9,0.289,1.794,0.589,2.683,0.901c0.146,0.052,0.224,0.212,0.172,0.359
			C191.582,76.695,191.474,76.767,191.357,76.767z M130.438,74.59c-0.124,0-0.237-0.082-0.271-0.207
			c-0.04-0.15,0.048-0.305,0.198-0.345c0.906-0.246,1.816-0.48,2.731-0.703c0.154-0.036,0.303,0.056,0.34,0.207
			c0.037,0.151-0.056,0.303-0.207,0.34c-0.91,0.221-1.816,0.454-2.717,0.699C130.487,74.587,130.462,74.59,130.438,74.59z
			 M183.28,74.303c-0.023,0-0.047-0.003-0.071-0.009c-0.903-0.235-1.812-0.458-2.725-0.669c-0.151-0.035-0.246-0.186-0.21-0.337
			c0.035-0.151,0.188-0.246,0.337-0.21c0.918,0.212,1.831,0.436,2.739,0.672c0.15,0.04,0.241,0.193,0.202,0.343
			C183.52,74.219,183.405,74.303,183.28,74.303z M138.662,72.715c-0.133,0-0.251-0.095-0.276-0.23
			c-0.028-0.153,0.073-0.3,0.225-0.328c0.923-0.17,1.85-0.328,2.78-0.474c0.151-0.023,0.297,0.081,0.321,0.234
			c0.024,0.153-0.081,0.297-0.234,0.321c-0.926,0.145-1.848,0.302-2.765,0.472C138.696,72.713,138.679,72.715,138.662,72.715z
			 M175.036,72.518c-0.016,0-0.032-0.001-0.049-0.004c-0.919-0.16-1.842-0.307-2.77-0.442c-0.154-0.023-0.26-0.165-0.238-0.319
			c0.022-0.154,0.168-0.264,0.319-0.238c0.933,0.136,1.861,0.283,2.786,0.444c0.153,0.027,0.255,0.172,0.229,0.326
			C175.289,72.422,175.17,72.518,175.036,72.518z M147.012,71.526c-0.143,0-0.265-0.108-0.279-0.253
			c-0.016-0.155,0.097-0.292,0.251-0.308c0.933-0.094,1.87-0.175,2.81-0.245c0.144-0.018,0.29,0.105,0.301,0.26
			c0.011,0.155-0.105,0.289-0.26,0.301c-0.936,0.068-1.867,0.149-2.794,0.243C147.031,71.525,147.022,71.526,147.012,71.526z
			 M166.672,71.42c-0.009,0-0.017,0-0.025-0.001c-0.929-0.083-1.861-0.154-2.797-0.213c-0.155-0.01-0.273-0.143-0.263-0.298
			c0.01-0.155,0.161-0.273,0.298-0.263c0.941,0.059,1.878,0.13,2.812,0.214c0.155,0.014,0.269,0.151,0.255,0.305
			C166.939,71.31,166.816,71.42,166.672,71.42z M155.434,71.024c-0.153,0-0.278-0.122-0.281-0.276
			c-0.003-0.155,0.121-0.284,0.276-0.287c0.938-0.017,1.881-0.023,2.821-0.015c0.155,0.001,0.28,0.128,0.279,0.284
			c-0.001,0.154-0.127,0.279-0.281,0.279c-0.001,0-0.002,0-0.003,0c-0.935-0.009-1.873-0.003-2.805,0.015
			C155.438,71.024,155.436,71.024,155.434,71.024z"/>
		<path style="fill:#63B2C1;" d="M289.676,317.208c-0.151,0-0.276-0.12-0.281-0.272c-0.005-0.155,0.116-0.286,0.271-0.291
			c0.934-0.031,1.876-0.08,2.8-0.146c0.131-0.019,0.29,0.105,0.3,0.261c0.012,0.154-0.105,0.289-0.261,0.3
			c-0.931,0.067-1.879,0.116-2.819,0.148C289.682,317.208,289.679,317.208,289.676,317.208z M284.052,317.184
			c-0.004,0-0.008,0-0.012,0c-0.939-0.04-1.888-0.099-2.818-0.174c-0.155-0.013-0.27-0.148-0.258-0.303s0.127-0.272,0.303-0.258
			c0.924,0.074,1.865,0.133,2.797,0.172c0.155,0.007,0.276,0.138,0.27,0.293C284.326,317.065,284.202,317.184,284.052,317.184z
			 M298.075,316.446c-0.138,0-0.258-0.101-0.278-0.24c-0.023-0.153,0.083-0.297,0.237-0.319c0.916-0.137,1.845-0.293,2.763-0.466
			c0.159-0.037,0.3,0.071,0.328,0.225c0.029,0.152-0.071,0.3-0.225,0.328c-0.924,0.174-1.86,0.332-2.784,0.47
			C298.102,316.445,298.089,316.446,298.075,316.446z M275.662,316.348c-0.015,0-0.029-0.001-0.044-0.003
			c-0.942-0.15-1.878-0.317-2.78-0.496c-0.152-0.03-0.252-0.179-0.222-0.331c0.03-0.151,0.172-0.246,0.331-0.222
			c0.896,0.179,1.823,0.344,2.759,0.492c0.153,0.024,0.258,0.169,0.234,0.322C275.918,316.249,275.799,316.348,275.662,316.348z
			 M306.329,314.723c-0.124,0-0.237-0.082-0.272-0.208c-0.041-0.149,0.048-0.304,0.198-0.345c0.908-0.246,1.813-0.51,2.69-0.783
			c0.153-0.048,0.307,0.037,0.353,0.185c0.046,0.148-0.036,0.307-0.185,0.353c-0.884,0.275-1.796,0.541-2.712,0.789
			C306.378,314.72,306.353,314.723,306.329,314.723z M267.423,314.549c-0.025,0-0.051-0.003-0.076-0.011
			c-0.895-0.249-1.804-0.523-2.703-0.813c-0.148-0.048-0.229-0.206-0.182-0.354c0.047-0.147,0.205-0.232,0.354-0.182
			c0.893,0.287,1.796,0.559,2.684,0.808c0.149,0.041,0.236,0.196,0.194,0.347C267.659,314.468,267.546,314.549,267.423,314.549z
			 M314.329,312.056c-0.111,0-0.218-0.066-0.262-0.177c-0.058-0.145,0.013-0.308,0.157-0.366c0.87-0.347,1.735-0.713,2.574-1.086
			c0.143-0.063,0.308,0,0.371,0.143c0.064,0.142,0,0.308-0.143,0.371c-0.845,0.377-1.718,0.745-2.594,1.096
			C314.399,312.05,314.364,312.056,314.329,312.056z M259.442,311.807c-0.036,0-0.072-0.007-0.106-0.021
			c-0.878-0.36-1.752-0.739-2.598-1.125c-0.141-0.064-0.203-0.231-0.139-0.373c0.065-0.142,0.232-0.204,0.373-0.139
			c0.839,0.383,1.706,0.759,2.576,1.115c0.145,0.06,0.213,0.224,0.154,0.367C259.658,311.741,259.553,311.807,259.442,311.807z
			 M321.957,308.483c-0.1,0-0.196-0.054-0.247-0.147c-0.074-0.137-0.023-0.308,0.113-0.381c0.817-0.443,1.636-0.906,2.434-1.378
			c0.133-0.079,0.306-0.036,0.386,0.099c0.079,0.134,0.035,0.307-0.099,0.386c-0.805,0.476-1.63,0.942-2.453,1.388
			C322.049,308.473,322.003,308.483,321.957,308.483z M251.828,308.155c-0.046,0-0.093-0.011-0.137-0.035
			c-0.829-0.459-1.653-0.935-2.447-1.415c-0.133-0.081-0.176-0.254-0.095-0.387c0.079-0.133,0.253-0.177,0.386-0.096
			c0.788,0.477,1.605,0.949,2.43,1.405c0.136,0.075,0.185,0.246,0.109,0.383C252.022,308.103,251.927,308.155,251.828,308.155z
			 M329.126,304.056c-0.089,0-0.176-0.042-0.231-0.12c-0.089-0.127-0.059-0.303,0.069-0.392c0.761-0.533,1.522-1.088,2.262-1.649
			c0.124-0.093,0.301-0.069,0.395,0.055c0.094,0.124,0.069,0.301-0.055,0.395c-0.745,0.564-1.512,1.123-2.279,1.661
			C329.238,304.039,329.182,304.056,329.126,304.056z M244.689,303.653c-0.057,0-0.114-0.017-0.164-0.053
			c-0.76-0.543-1.523-1.11-2.267-1.686c-0.123-0.096-0.145-0.272-0.05-0.395c0.095-0.124,0.272-0.146,0.395-0.051
			c0.739,0.572,1.496,1.136,2.249,1.675c0.126,0.09,0.156,0.266,0.065,0.393C244.863,303.612,244.777,303.653,244.689,303.653z
			 M335.743,298.831c-0.078,0-0.155-0.032-0.211-0.095c-0.103-0.116-0.092-0.294,0.024-0.397c0.691-0.611,1.384-1.25,2.06-1.897
			c0.112-0.108,0.289-0.104,0.398,0.009c0.107,0.112,0.103,0.29-0.009,0.397c-0.681,0.652-1.379,1.296-2.075,1.913
			C335.876,298.808,335.81,298.831,335.743,298.831z M238.118,298.362c-0.067,0-0.135-0.023-0.188-0.072
			c-0.691-0.624-1.383-1.274-2.058-1.934c-0.111-0.108-0.114-0.286-0.005-0.397c0.109-0.111,0.286-0.114,0.397-0.005
			c0.67,0.653,1.357,1.299,2.042,1.918c0.115,0.104,0.124,0.282,0.02,0.397C238.271,298.331,238.194,298.362,238.118,298.362z
			 M341.721,292.885c-0.067,0-0.134-0.023-0.188-0.072c-0.116-0.103-0.126-0.281-0.023-0.397c0.621-0.692,1.237-1.407,1.831-2.123
			c0.099-0.12,0.276-0.135,0.396-0.037c0.119,0.1,0.136,0.276,0.037,0.396c-0.599,0.722-1.22,1.441-1.845,2.139
			C341.875,292.853,341.798,292.885,341.721,292.885z M232.195,292.357c-0.078,0-0.156-0.032-0.211-0.096
			c-0.624-0.711-1.237-1.435-1.822-2.155c-0.098-0.121-0.08-0.298,0.041-0.396c0.121-0.096,0.298-0.079,0.395,0.041
			c0.58,0.715,1.189,1.434,1.808,2.14c0.103,0.116,0.091,0.294-0.026,0.397C232.328,292.334,232.261,292.357,232.195,292.357z
			 M346.982,286.288c-0.057,0-0.113-0.017-0.162-0.052c-0.127-0.09-0.157-0.266-0.067-0.392c0.537-0.76,1.067-1.54,1.576-2.32
			c0.085-0.13,0.261-0.167,0.389-0.082c0.131,0.084,0.167,0.259,0.082,0.389c-0.512,0.787-1.046,1.573-1.588,2.338
			C347.157,286.247,347.07,286.288,346.982,286.288z M227.002,285.716c-0.089,0-0.177-0.042-0.232-0.121
			c-0.539-0.777-1.065-1.567-1.563-2.348c-0.083-0.131-0.045-0.305,0.086-0.389c0.132-0.086,0.305-0.044,0.389,0.086
			c0.493,0.775,1.015,1.559,1.55,2.33c0.089,0.128,0.057,0.303-0.071,0.392C227.113,285.699,227.057,285.716,227.002,285.716z
			 M351.453,279.132c-0.046,0-0.092-0.011-0.135-0.034c-0.137-0.075-0.187-0.246-0.112-0.382c0.444-0.813,0.882-1.65,1.299-2.488
			c0.068-0.141,0.239-0.195,0.377-0.127c0.14,0.069,0.196,0.238,0.127,0.377c-0.421,0.845-0.86,1.688-1.309,2.508
			C351.648,279.079,351.553,279.132,351.453,279.132z M222.606,278.526c-0.101,0-0.198-0.054-0.249-0.148
			c-0.442-0.827-0.873-1.671-1.281-2.51c-0.068-0.14-0.01-0.309,0.13-0.376c0.138-0.07,0.308-0.01,0.376,0.13
			c0.405,0.832,0.832,1.67,1.271,2.49c0.073,0.137,0.021,0.308-0.115,0.381C222.696,278.516,222.65,278.526,222.606,278.526z
			 M355.067,271.502c-0.035,0-0.071-0.007-0.105-0.021c-0.145-0.059-0.214-0.223-0.155-0.366c0.351-0.866,0.689-1.749,1.004-2.625
			c0.052-0.146,0.209-0.224,0.36-0.169c0.146,0.053,0.222,0.214,0.169,0.36c-0.318,0.882-0.658,1.771-1.012,2.645
			C355.284,271.435,355.179,271.502,355.067,271.502z M219.069,270.882c-0.112,0-0.218-0.067-0.262-0.178
			c-0.347-0.882-0.678-1.772-0.984-2.647c-0.051-0.146,0.026-0.308,0.173-0.358c0.147-0.051,0.307,0.025,0.358,0.173
			c0.303,0.868,0.631,1.752,0.976,2.626c0.057,0.145-0.014,0.309-0.159,0.365C219.138,270.876,219.103,270.882,219.069,270.882z
			 M357.775,263.507c-0.024,0-0.05-0.003-0.074-0.01c-0.15-0.041-0.238-0.196-0.197-0.346c0.248-0.901,0.481-1.814,0.69-2.717
			c0.036-0.149,0.183-0.245,0.339-0.21c0.151,0.036,0.245,0.188,0.21,0.339c-0.213,0.908-0.447,1.829-0.696,2.736
			C358.013,263.425,357.899,263.507,357.775,263.507z M216.437,262.87c-0.124,0-0.239-0.083-0.272-0.209
			c-0.239-0.902-0.465-1.825-0.67-2.743c-0.034-0.151,0.061-0.302,0.213-0.336c0.149-0.037,0.302,0.061,0.336,0.213
			c0.205,0.911,0.428,1.827,0.666,2.722c0.04,0.15-0.05,0.305-0.2,0.344C216.485,262.867,216.46,262.87,216.437,262.87z
			 M359.536,255.26c-0.014,0-0.028-0.001-0.043-0.003c-0.153-0.023-0.259-0.167-0.235-0.321c0.142-0.923,0.268-1.857,0.373-2.777
			c0.018-0.154,0.159-0.256,0.311-0.247c0.154,0.018,0.265,0.157,0.247,0.312c-0.106,0.927-0.232,1.868-0.375,2.799
			C359.793,255.16,359.673,255.26,359.536,255.26z M214.75,254.607c-0.137,0-0.258-0.101-0.278-0.241
			c-0.134-0.923-0.252-1.865-0.35-2.802c-0.016-0.154,0.096-0.293,0.25-0.31c0.155-0.009,0.293,0.097,0.309,0.251
			c0.098,0.929,0.215,1.864,0.347,2.78c0.023,0.153-0.085,0.296-0.238,0.318C214.777,254.606,214.764,254.607,214.75,254.607z
			 M360.335,246.865c-0.004,0-0.007,0-0.011,0c-0.155-0.006-0.276-0.137-0.271-0.292c0.035-0.917,0.054-1.859,0.054-2.801
			c0-0.155,0.126-0.281,0.281-0.281c0.155,0,0.281,0.126,0.281,0.281c0,0.949-0.018,1.899-0.054,2.822
			C360.61,246.747,360.485,246.865,360.335,246.865z M214.027,246.206c-0.152,0-0.277-0.121-0.281-0.273
			c-0.02-0.718-0.031-1.438-0.031-2.161l0.003-0.663c0.001-0.155,0.127-0.279,0.281-0.279c0.001,0,0.001,0,0.003,0
			c0.155,0.001,0.28,0.128,0.279,0.284l-0.003,0.658c0,0.717,0.01,1.433,0.031,2.145c0.004,0.156-0.118,0.285-0.273,0.289
			C214.032,246.206,214.029,246.206,214.027,246.206z M360.374,242.556c-0.153,0-0.278-0.122-0.281-0.276
			c-0.019-0.917-0.055-1.858-0.109-2.8c-0.009-0.155,0.11-0.288,0.265-0.297c0.173-0.024,0.289,0.109,0.298,0.265
			c0.055,0.948,0.091,1.898,0.109,2.821c0.003,0.155-0.12,0.284-0.275,0.287C360.378,242.556,360.376,242.556,360.374,242.556z
			 M214.262,237.777c-0.008,0-0.016,0-0.024-0.001c-0.155-0.013-0.27-0.149-0.256-0.304c0.08-0.938,0.178-1.882,0.292-2.808
			c0.019-0.155,0.163-0.266,0.314-0.245c0.154,0.019,0.264,0.16,0.245,0.314c-0.114,0.918-0.211,1.855-0.29,2.786
			C214.53,237.666,214.407,237.777,214.262,237.777z M359.724,234.148c-0.139,0-0.26-0.103-0.279-0.244
			c-0.125-0.926-0.269-1.857-0.429-2.768c-0.026-0.153,0.076-0.299,0.228-0.326c0.157-0.026,0.299,0.076,0.326,0.229
			c0.16,0.918,0.306,1.857,0.433,2.79c0.02,0.154-0.088,0.295-0.241,0.316C359.749,234.148,359.736,234.148,359.724,234.148z
			 M215.457,229.43c-0.018,0-0.038-0.001-0.057-0.005c-0.152-0.031-0.251-0.18-0.22-0.332c0.186-0.917,0.393-1.844,0.614-2.755
			c0.037-0.151,0.187-0.245,0.34-0.207c0.151,0.037,0.244,0.189,0.207,0.34c-0.22,0.904-0.425,1.824-0.609,2.734
			C215.706,229.338,215.588,229.43,215.457,229.43z M358.113,225.871c-0.126,0-0.24-0.085-0.272-0.211
			c-0.232-0.905-0.483-1.813-0.747-2.7c-0.044-0.149,0.04-0.306,0.189-0.35c0.149-0.046,0.306,0.04,0.35,0.189
			c0.266,0.894,0.52,1.809,0.753,2.721c0.039,0.15-0.052,0.304-0.202,0.342C358.16,225.868,358.136,225.871,358.113,225.871z
			 M217.609,221.276c-0.029,0-0.059-0.004-0.087-0.014c-0.148-0.048-0.229-0.208-0.18-0.355c0.293-0.895,0.606-1.794,0.933-2.673
			c0.054-0.146,0.216-0.222,0.361-0.166c0.146,0.054,0.22,0.216,0.166,0.361c-0.323,0.873-0.634,1.765-0.925,2.653
			C217.838,221.201,217.728,221.276,217.609,221.276z M355.555,217.836c-0.113,0-0.22-0.068-0.263-0.18
			c-0.336-0.876-0.69-1.746-1.052-2.588c-0.061-0.143,0.005-0.308,0.147-0.369c0.142-0.061,0.309,0.004,0.37,0.148
			c0.364,0.849,0.721,1.726,1.06,2.608c0.056,0.145-0.017,0.308-0.162,0.364C355.622,217.83,355.588,217.836,355.555,217.836z
			 M220.698,213.414c-0.04,0-0.079-0.008-0.118-0.026c-0.141-0.065-0.203-0.232-0.138-0.373c0.393-0.852,0.808-1.708,1.235-2.545
			c0.07-0.138,0.239-0.194,0.379-0.122c0.138,0.07,0.193,0.24,0.122,0.378c-0.423,0.831-0.835,1.68-1.225,2.525
			C220.906,213.354,220.804,213.414,220.698,213.414z M352.086,210.162c-0.101,0-0.199-0.055-0.249-0.151
			c-0.429-0.818-0.881-1.643-1.345-2.452c-0.077-0.135-0.03-0.307,0.104-0.384c0.135-0.077,0.308-0.03,0.384,0.104
			c0.467,0.815,0.923,1.647,1.354,2.472c0.072,0.138,0.02,0.308-0.118,0.379C352.175,210.151,352.13,210.162,352.086,210.162z
			 M224.673,205.966c-0.05,0-0.1-0.013-0.146-0.041c-0.133-0.081-0.175-0.254-0.094-0.387c0.488-0.799,0.999-1.601,1.519-2.384
			c0.086-0.129,0.259-0.166,0.39-0.079c0.129,0.086,0.165,0.261,0.079,0.39c-0.516,0.777-1.023,1.573-1.507,2.366
			C224.861,205.919,224.769,205.966,224.673,205.966z M347.756,202.934c-0.09,0-0.178-0.043-0.233-0.123
			c-0.519-0.763-1.063-1.531-1.619-2.284c-0.092-0.125-0.065-0.301,0.06-0.394c0.123-0.091,0.3-0.066,0.393,0.06
			c0.56,0.758,1.108,1.533,1.631,2.301c0.088,0.129,0.055,0.303-0.074,0.391C347.865,202.918,347.81,202.934,347.756,202.934z
			 M229.478,199.029c-0.061,0-0.122-0.02-0.173-0.06c-0.122-0.096-0.144-0.272-0.048-0.395c0.573-0.734,1.172-1.472,1.781-2.192
			c0.1-0.12,0.278-0.135,0.396-0.033c0.119,0.1,0.134,0.278,0.033,0.396c-0.604,0.715-1.199,1.447-1.768,2.176
			C229.645,198.992,229.561,199.029,229.478,199.029z M342.622,196.247c-0.079,0-0.157-0.033-0.213-0.097
			c-0.61-0.706-1.239-1.407-1.871-2.085c-0.105-0.114-0.1-0.292,0.015-0.398c0.112-0.106,0.29-0.1,0.397,0.014
			c0.636,0.683,1.271,1.39,1.885,2.1c0.102,0.118,0.089,0.295-0.029,0.397C342.753,196.225,342.688,196.247,342.622,196.247z
			 M235.044,192.689c-0.071,0-0.143-0.027-0.197-0.081c-0.111-0.109-0.112-0.288-0.003-0.398c0.66-0.67,1.339-1.334,2.019-1.973
			c0.113-0.105,0.291-0.101,0.398,0.012c0.106,0.113,0.1,0.292-0.012,0.398c-0.675,0.635-1.35,1.293-2.003,1.958
			C235.189,192.662,235.117,192.689,235.044,192.689z M336.755,190.189c-0.068,0-0.137-0.025-0.19-0.074
			c-0.687-0.632-1.394-1.257-2.099-1.858c-0.118-0.101-0.132-0.279-0.031-0.397c0.101-0.119,0.279-0.132,0.396-0.032
			c0.711,0.606,1.422,1.236,2.114,1.873c0.114,0.105,0.122,0.283,0.017,0.397C336.906,190.159,336.831,190.189,336.755,190.189z
			 M241.296,187.031c-0.082,0-0.164-0.036-0.219-0.105c-0.097-0.121-0.078-0.298,0.043-0.396c0.727-0.585,1.477-1.167,2.23-1.728
			c0.123-0.092,0.3-0.067,0.394,0.058c0.093,0.124,0.067,0.301-0.058,0.394c-0.748,0.557-1.492,1.134-2.213,1.715
			C241.421,187.01,241.358,187.031,241.296,187.031z M330.23,184.841c-0.058,0-0.115-0.018-0.166-0.054
			c-0.744-0.543-1.518-1.083-2.298-1.607c-0.13-0.086-0.164-0.261-0.077-0.39c0.085-0.129,0.26-0.164,0.39-0.077
			c0.787,0.528,1.566,1.073,2.317,1.62c0.125,0.092,0.153,0.268,0.062,0.393C330.402,184.801,330.317,184.841,330.23,184.841z
			 M248.153,182.126c-0.094,0-0.184-0.046-0.238-0.131c-0.083-0.131-0.044-0.305,0.087-0.388c0.793-0.501,1.604-0.992,2.412-1.46
			c0.134-0.078,0.307-0.032,0.385,0.102c0.078,0.135,0.032,0.307-0.102,0.385c-0.801,0.464-1.606,0.951-2.393,1.448
			C248.256,182.112,248.204,182.126,248.153,182.126z M323.135,180.274c-0.047,0-0.095-0.012-0.139-0.036
			c-0.82-0.463-1.651-0.911-2.47-1.333c-0.138-0.071-0.192-0.241-0.121-0.379c0.07-0.139,0.242-0.194,0.379-0.121
			c0.824,0.425,1.662,0.876,2.489,1.343c0.135,0.076,0.183,0.248,0.106,0.383C323.328,180.223,323.232,180.274,323.135,180.274z
			 M255.523,178.044c-0.104,0-0.205-0.059-0.254-0.159c-0.067-0.14-0.008-0.308,0.132-0.376c0.849-0.408,1.71-0.802,2.561-1.171
			c0.146-0.061,0.309,0.003,0.37,0.146c0.063,0.143-0.003,0.308-0.146,0.37c-0.846,0.366-1.701,0.757-2.542,1.162
			C255.606,178.036,255.564,178.044,255.523,178.044z M315.557,176.555c-0.036,0-0.073-0.007-0.109-0.022
			c-0.864-0.363-1.742-0.712-2.609-1.039c-0.146-0.054-0.22-0.217-0.165-0.362c0.056-0.145,0.221-0.217,0.362-0.164
			c0.875,0.328,1.76,0.68,2.631,1.046c0.143,0.06,0.21,0.225,0.15,0.368C315.77,176.491,315.666,176.555,315.557,176.555z
			 M263.311,174.842c-0.117,0-0.226-0.073-0.266-0.189c-0.051-0.147,0.027-0.307,0.174-0.358c0.882-0.304,1.786-0.596,2.688-0.869
			c0.144-0.041,0.306,0.039,0.351,0.188c0.045,0.149-0.039,0.306-0.188,0.351c-0.894,0.27-1.791,0.561-2.666,0.862
			C263.373,174.837,263.342,174.842,263.311,174.842z M307.599,173.739c-0.025,0-0.052-0.004-0.078-0.011
			c-0.898-0.26-1.809-0.505-2.705-0.727c-0.151-0.038-0.243-0.19-0.206-0.341c0.037-0.151,0.191-0.247,0.341-0.205
			c0.903,0.224,1.821,0.471,2.727,0.732c0.149,0.044,0.235,0.199,0.192,0.349C307.833,173.659,307.721,173.739,307.599,173.739z
			 M271.43,172.559c-0.13,0-0.246-0.089-0.274-0.221c-0.033-0.151,0.063-0.302,0.214-0.335c0.923-0.202,1.855-0.388,2.77-0.551
			c0.16-0.029,0.3,0.075,0.327,0.227c0.027,0.153-0.075,0.299-0.228,0.326c-0.908,0.163-1.832,0.347-2.748,0.547
			C271.47,172.557,271.449,172.559,271.43,172.559z M299.376,171.867c-0.015,0-0.03-0.001-0.047-0.004
			c-0.917-0.153-1.85-0.291-2.772-0.409c-0.153-0.02-0.263-0.161-0.243-0.315c0.02-0.154,0.151-0.264,0.315-0.244
			c0.929,0.12,1.868,0.258,2.793,0.413c0.152,0.025,0.256,0.17,0.23,0.324C299.631,171.77,299.512,171.867,299.376,171.867z
			 M279.757,171.23c-0.143,0-0.266-0.108-0.28-0.253c-0.016-0.155,0.098-0.292,0.252-0.308c0.929-0.094,1.876-0.171,2.815-0.229
			c0.149-0.016,0.288,0.108,0.299,0.263c0.009,0.155-0.108,0.289-0.264,0.298c-0.932,0.058-1.871,0.135-2.793,0.227
			C279.775,171.23,279.766,171.23,279.757,171.23z M290.994,170.954c-0.005,0-0.01,0-0.015-0.001
			c-0.929-0.047-1.871-0.077-2.801-0.09c-0.155-0.002-0.279-0.13-0.277-0.285c0.002-0.155,0.127-0.278,0.285-0.277
			c0.936,0.013,1.886,0.043,2.822,0.091c0.155,0.008,0.274,0.14,0.267,0.295C291.268,170.837,291.144,170.954,290.994,170.954z"/>
	</g>
	<g>
		<g>
			<rect x="79.338" y="353.986" style="fill:#63B2C1;" width="369.724" height="13.658"/>
			<rect x="69.25" y="367.644" style="fill:#4293A1;" width="389.899" height="13.658"/>
			<rect x="60.149" y="381.34" style="fill:#63B2C1;" width="409.065" height="13.658"/>
			<rect x="50.938" y="395.035" style="fill:#4293A1;" width="426.522" height="13.658"/>
		</g>
		<g>
			<polygon style="fill:#217180;" points="230.643,203.04 26.915,203.04 87.58,343.546 291.308,343.546 			"/>
			<polygon style="fill:#6901BC;" points="226.267,207.337 35.002,207.337 91.956,339.248 283.221,339.248 			"/>
			<rect x="291.308" y="343.546" style="fill:#217180;" width="151.49" height="10.44"/>
			<rect x="87.367" y="343.546" style="fill:#0B4854;" width="203.942" height="10.44"/>
			<g>
				<rect x="282.786" y="345.89" style="fill:#95E1EF;" width="2.557" height="6.179"/>
				<rect x="276.606" y="345.89" style="fill:#95E1EF;" width="2.557" height="6.179"/>
				<rect x="270.428" y="345.89" style="fill:#95E1EF;" width="2.557" height="6.179"/>
				<rect x="264.249" y="345.89" style="fill:#95E1EF;" width="2.557" height="6.179"/>
				<rect x="258.07" y="345.89" style="fill:#95E1EF;" width="2.557" height="6.179"/>
			</g>
			<g>
				<rect x="117.196" y="345.89" style="fill:#95E1EF;" width="2.557" height="6.179"/>
				<rect x="111.017" y="345.89" style="fill:#95E1EF;" width="2.557" height="6.179"/>
				<rect x="104.838" y="345.89" style="fill:#95E1EF;" width="2.557" height="6.179"/>
				<rect x="98.659" y="345.89" style="fill:#95E1EF;" width="2.557" height="6.179"/>
				<rect x="92.48" y="345.89" style="fill:#95E1EF;" width="2.557" height="6.179"/>
			</g>
			<rect x="87.367" y="348.724" style="fill:#95E1EF;" width="355.432" height="0.512"/>
			<g>
				<g>
					<polygon style="fill:#FFFFFF;" points="283.18,339.862 91.84,339.862 35.032,207.337 226.372,207.337 					"/>
				</g>
				<polygon style="fill:#95E1EF;" points="212.683,335.651 157.146,335.651 146.898,311.744 202.435,311.744 				"/>
				<polygon style="fill:#95E1EF;" points="150.831,335.651 95.294,335.651 85.046,311.744 140.583,311.744 				"/>
				<polygon style="fill:#95E1EF;" points="274.536,335.651 218.999,335.651 208.751,311.744 264.288,311.744 				"/>
				<polygon style="fill:#95E1EF;" points="259.766,302.251 81.166,302.251 53.709,238.198 232.309,238.198 				"/>
				<polygon style="fill:#4293A1;" points="229.889,215.542 38.549,215.542 35.032,207.337 226.372,207.337 				"/>
				<path style="fill:#FFFFFF;" d="M42.278,211.906c0.375,0.875,0.069,1.585-0.683,1.585c-0.752,0-1.666-0.71-2.042-1.585
					c-0.375-0.875-0.07-1.585,0.683-1.585S41.903,211.03,42.278,211.906z"/>
				<path style="fill:#FFFFFF;" d="M47.887,211.906c0.375,0.875,0.07,1.585-0.683,1.585c-0.752,0-1.666-0.71-2.042-1.585
					c-0.375-0.875-0.07-1.585,0.683-1.585S47.512,211.03,47.887,211.906z"/>
				<path style="fill:#FFFFFF;" d="M53.496,211.906c0.375,0.875,0.069,1.585-0.683,1.585c-0.752,0-1.666-0.71-2.042-1.585
					c-0.375-0.875-0.07-1.585,0.683-1.585C52.207,210.321,53.121,211.03,53.496,211.906z"/>
				<g>
					<g>
						<g>
							<path style="fill:#4293A1;" d="M96.814,228.889h-0.265l-0.842-1.964h0.265l0.361,0.841h0.301l-0.361-0.841h0.27l0.842,1.964
								h-0.27l-0.361-0.842h-0.301L96.814,228.889z"/>
							<path style="fill:#4293A1;" d="M97.635,227.396c-0.135-0.314-0.069-0.494,0.191-0.494c0.26,0,0.479,0.18,0.614,0.494
								l0.438,1.021c0.135,0.315,0.07,0.494-0.191,0.494c-0.261,0-0.48-0.18-0.615-0.494L97.635,227.396z M98.346,228.437
								c0.06,0.14,0.136,0.194,0.221,0.194c0.084,0,0.114-0.053,0.054-0.194l-0.454-1.06c-0.06-0.14-0.136-0.194-0.22-0.194
								c-0.084,0-0.115,0.053-0.055,0.194L98.346,228.437z"/>
							<path style="fill:#4293A1;" d="M100.287,228.32l-0.417-1.394h0.369l0.842,1.964h-0.251l-0.604-1.409l0.421,1.409h-0.251
								l-0.793-1.389l0.595,1.389h-0.231l-0.842-1.964h0.369L100.287,228.32z"/>
							<path style="fill:#4293A1;" d="M101.769,227.753h0.364l0.12,0.281h-0.364l0.246,0.575h0.458l0.12,0.281h-0.724l-0.842-1.964
								h0.724l0.12,0.281h-0.458L101.769,227.753z"/>
						</g>
					</g>
					<g>
						<g>
							<path style="fill:#4293A1;" d="M111.638,228.889h-0.268l-0.199-0.356h-0.325l0.107,0.356h-0.244l-0.572-1.964h0.388
								L111.638,228.889z M110.766,228.266h0.255l-0.553-0.993L110.766,228.266z"/>
							<path style="fill:#4293A1;" d="M112.624,227.377l0.03,0.07c0.087,0.202,0.089,0.331-0.002,0.395
								c0.17,0.065,0.289,0.214,0.378,0.421l0.068,0.16c0.13,0.303,0.063,0.466-0.203,0.466h-0.417l-0.842-1.964h0.4
								C112.313,226.925,112.494,227.074,112.624,227.377z M112.023,227.206l0.222,0.519h0.104c0.099,0,0.137-0.051,0.07-0.207
								l-0.047-0.11c-0.06-0.14-0.128-0.202-0.222-0.202H112.023z M112.366,228.005l0.258,0.603h0.152
								c0.089,0,0.117-0.048,0.054-0.193l-0.074-0.172c-0.078-0.182-0.153-0.238-0.273-0.238H112.366z"/>
							<path style="fill:#4293A1;" d="M113.515,227.396c-0.135-0.314-0.07-0.494,0.191-0.494c0.26,0,0.479,0.18,0.614,0.494
								l0.438,1.021c0.135,0.315,0.07,0.494-0.19,0.494c-0.261,0-0.48-0.18-0.615-0.494L113.515,227.396z M114.226,228.437
								c0.06,0.14,0.136,0.194,0.221,0.194c0.084,0,0.114-0.053,0.054-0.194l-0.454-1.06c-0.06-0.14-0.136-0.194-0.22-0.194
								c-0.085,0-0.115,0.053-0.055,0.194L114.226,228.437z"/>
							<path style="fill:#4293A1;" d="M115.261,226.925l0.649,1.515c0.06,0.14,0.135,0.191,0.219,0.191
								c0.085,0,0.116-0.051,0.056-0.191l-0.649-1.515h0.25l0.641,1.495c0.135,0.314,0.077,0.494-0.183,0.494
								c-0.261,0-0.472-0.18-0.607-0.494l-0.641-1.495H115.261z"/>
							<path style="fill:#4293A1;" d="M116.608,226.925h0.819l0.12,0.281h-0.277l0.721,1.683h-0.265l-0.721-1.683h-0.277
								L116.608,226.925z"/>
							<path style="fill:#4293A1;" d="M119.609,226.925l0.649,1.515c0.06,0.14,0.135,0.191,0.219,0.191
								c0.084,0,0.116-0.051,0.056-0.191l-0.649-1.515h0.25l0.641,1.495c0.135,0.314,0.077,0.494-0.183,0.494
								c-0.261,0-0.473-0.18-0.607-0.494l-0.641-1.495H119.609z"/>
							<path style="fill:#4293A1;" d="M121.381,226.903c0.258,0,0.468,0.18,0.602,0.494l0.026,0.062h-0.25l-0.035-0.081
								c-0.06-0.14-0.131-0.194-0.216-0.194c-0.085,0-0.109,0.053-0.049,0.194c0.173,0.404,0.724,0.48,0.964,1.04
								c0.135,0.315,0.077,0.494-0.184,0.494c-0.26,0-0.472-0.18-0.607-0.494l-0.052-0.12h0.25l0.06,0.14
								c0.06,0.14,0.135,0.191,0.219,0.191c0.085,0,0.116-0.051,0.056-0.191c-0.173-0.404-0.724-0.479-0.965-1.041
								C121.067,227.082,121.123,226.903,121.381,226.903z"/>
						</g>
					</g>
					<g>
						<g>
							<path style="fill:#4293A1;" d="M128.231,227.411l0.109,0.255c0.135,0.314,0.078,0.485-0.188,0.485h-0.125l0.316,0.738h-0.265
								l-0.842-1.964h0.39C127.893,226.925,128.096,227.096,128.231,227.411z M127.623,227.206l0.285,0.665h0.125
								c0.085,0,0.111-0.045,0.051-0.185l-0.126-0.295c-0.06-0.14-0.125-0.185-0.21-0.185H127.623z"/>
							<path style="fill:#4293A1;" d="M130.261,228.889c-0.036-0.051-0.059-0.081-0.128-0.242l-0.132-0.309
								c-0.078-0.182-0.16-0.249-0.281-0.249h-0.091l0.343,0.799h-0.266l-0.842-1.964h0.4c0.275,0,0.457,0.148,0.587,0.452
								l0.066,0.154c0.087,0.202,0.088,0.334-0.003,0.398c0.161,0.065,0.268,0.214,0.356,0.418l0.13,0.303
								c0.041,0.095,0.073,0.166,0.131,0.239H130.261z M129.25,227.206l0.258,0.603h0.104c0.099,0,0.137-0.051,0.07-0.207
								l-0.083-0.194c-0.06-0.14-0.128-0.202-0.222-0.202H129.25z"/>
							<path style="fill:#4293A1;" d="M130.732,227.396c-0.135-0.314-0.07-0.494,0.191-0.494c0.26,0,0.479,0.18,0.614,0.494
								l0.438,1.021c0.135,0.315,0.07,0.494-0.19,0.494c-0.261,0-0.48-0.18-0.615-0.494L130.732,227.396z M131.444,228.437
								c0.06,0.14,0.136,0.194,0.221,0.194c0.084,0,0.114-0.053,0.054-0.194l-0.454-1.06c-0.06-0.14-0.136-0.194-0.22-0.194
								c-0.085,0-0.115,0.053-0.055,0.194L131.444,228.437z"/>
							<path style="fill:#4293A1;" d="M132.225,226.925h0.42c0.265,0,0.468,0.171,0.603,0.485l0.426,0.993
								c0.135,0.314,0.078,0.485-0.187,0.485h-0.42L132.225,226.925z M132.611,227.206l0.601,1.402h0.149
								c0.084,0,0.113-0.051,0.053-0.191l-0.438-1.021c-0.06-0.14-0.132-0.19-0.216-0.19H132.611z"/>
							<path style="fill:#4293A1;" d="M134.18,226.925l0.649,1.515c0.06,0.14,0.135,0.191,0.219,0.191
								c0.085,0,0.116-0.051,0.056-0.191l-0.649-1.515h0.251l0.641,1.495c0.135,0.314,0.077,0.494-0.183,0.494
								c-0.261,0-0.473-0.18-0.607-0.494l-0.641-1.495H134.18z"/>
							<path style="fill:#4293A1;" d="M136.901,228.156l0.112,0.261c0.135,0.315,0.077,0.494-0.184,0.494
								c-0.26,0-0.472-0.18-0.607-0.494l-0.438-1.021c-0.135-0.314-0.076-0.494,0.184-0.494c0.26,0,0.473,0.18,0.607,0.494
								l0.082,0.191h-0.251l-0.09-0.21c-0.06-0.14-0.136-0.194-0.22-0.194c-0.085,0-0.115,0.053-0.055,0.194l0.454,1.06
								c0.06,0.14,0.135,0.191,0.22,0.191c0.084,0,0.116-0.051,0.055-0.191l-0.12-0.281H136.901z"/>
							<path style="fill:#4293A1;" d="M137.176,226.925h0.82l0.12,0.281h-0.277l0.721,1.683h-0.265l-0.721-1.683h-0.277
								L137.176,226.925z"/>
							<path style="fill:#4293A1;" d="M139.177,226.903c0.258,0,0.468,0.18,0.602,0.494l0.027,0.062h-0.251l-0.035-0.081
								c-0.06-0.14-0.131-0.194-0.216-0.194s-0.11,0.053-0.05,0.194c0.173,0.404,0.724,0.48,0.964,1.04
								c0.135,0.315,0.077,0.494-0.184,0.494c-0.26,0-0.472-0.18-0.607-0.494l-0.052-0.12h0.251l0.06,0.14
								c0.06,0.14,0.135,0.191,0.22,0.191c0.084,0,0.116-0.051,0.055-0.191c-0.173-0.404-0.724-0.479-0.965-1.041
								C138.864,227.082,138.92,226.903,139.177,226.903z"/>
						</g>
					</g>
					<g>
						<g>
							<path style="fill:#4293A1;" d="M146.333,226.903c0.258,0,0.468,0.18,0.602,0.494l0.027,0.062h-0.251l-0.035-0.081
								c-0.06-0.14-0.131-0.194-0.216-0.194s-0.11,0.053-0.05,0.194c0.173,0.404,0.724,0.48,0.965,1.04
								c0.135,0.315,0.077,0.494-0.184,0.494c-0.26,0-0.472-0.18-0.607-0.494l-0.052-0.12h0.25l0.06,0.14
								c0.06,0.14,0.135,0.191,0.22,0.191c0.084,0,0.116-0.051,0.055-0.191c-0.173-0.404-0.724-0.479-0.965-1.041
								C146.019,227.082,146.075,226.903,146.333,226.903z"/>
							<path style="fill:#4293A1;" d="M147.786,227.396c-0.135-0.314-0.07-0.494,0.191-0.494c0.26,0,0.479,0.18,0.614,0.494
								l0.438,1.021c0.135,0.315,0.07,0.494-0.19,0.494c-0.261,0-0.48-0.18-0.615-0.494L147.786,227.396z M148.497,228.437
								c0.06,0.14,0.136,0.194,0.221,0.194c0.084,0,0.114-0.053,0.054-0.194l-0.454-1.06c-0.06-0.14-0.136-0.194-0.22-0.194
								c-0.085,0-0.115,0.053-0.055,0.194L148.497,228.437z"/>
							<path style="fill:#4293A1;" d="M150.438,228.32l-0.417-1.394h0.369l0.842,1.964h-0.251l-0.604-1.409l0.421,1.409h-0.251
								l-0.792-1.389l0.595,1.389h-0.231l-0.842-1.964h0.369L150.438,228.32z"/>
							<path style="fill:#4293A1;" d="M151.92,227.753h0.364l0.12,0.281h-0.364l0.246,0.575h0.458l0.12,0.281h-0.724l-0.842-1.964
								h0.724l0.12,0.281h-0.458L151.92,227.753z"/>
							<path style="fill:#4293A1;" d="M153.923,226.925h0.819l0.12,0.281h-0.277l0.721,1.683h-0.265l-0.721-1.683h-0.277
								L153.923,226.925z"/>
							<path style="fill:#4293A1;" d="M156.684,228.889h-0.266l-0.842-1.964h0.266l0.361,0.841h0.301l-0.361-0.841h0.27l0.842,1.964
								h-0.27l-0.361-0.842h-0.301L156.684,228.889z"/>
							<path style="fill:#4293A1;" d="M157.324,226.925h0.265l0.842,1.964h-0.265L157.324,226.925z"/>
							<path style="fill:#4293A1;" d="M158.97,227.467l0.61,1.422h-0.238l-0.842-1.964h0.332l0.776,1.176l-0.504-1.176h0.236
								l0.842,1.964h-0.272L158.97,227.467z"/>
							<path style="fill:#4293A1;" d="M161.02,227.795h0.372l0.267,0.623c0.135,0.315,0.077,0.494-0.184,0.494
								c-0.26,0-0.473-0.18-0.607-0.494l-0.438-1.021c-0.135-0.314-0.076-0.494,0.184-0.494c0.26,0,0.472,0.18,0.607,0.494
								l0.082,0.191h-0.251l-0.09-0.21c-0.06-0.14-0.136-0.194-0.22-0.194c-0.084,0-0.115,0.053-0.055,0.194l0.454,1.06
								c0.06,0.14,0.135,0.191,0.219,0.191c0.084,0,0.115-0.051,0.055-0.191l-0.155-0.362h-0.121L161.02,227.795z"/>
							<path style="fill:#4293A1;" d="M162.255,226.903c0.258,0,0.468,0.18,0.602,0.494l0.026,0.062h-0.25l-0.035-0.081
								c-0.06-0.14-0.131-0.194-0.216-0.194c-0.084,0-0.109,0.053-0.049,0.194c0.173,0.404,0.724,0.48,0.964,1.04
								c0.135,0.315,0.077,0.494-0.184,0.494c-0.26,0-0.472-0.18-0.607-0.494l-0.052-0.12h0.25l0.06,0.14
								c0.06,0.14,0.135,0.191,0.219,0.191c0.085,0,0.116-0.051,0.056-0.191c-0.173-0.404-0.724-0.479-0.965-1.041
								C161.941,227.082,161.997,226.903,162.255,226.903z"/>
						</g>
					</g>
					<g>
						<g>
							<path style="fill:#4293A1;" d="M169.272,228.156l0.112,0.261c0.135,0.315,0.077,0.494-0.184,0.494
								c-0.26,0-0.473-0.18-0.607-0.494l-0.438-1.021c-0.135-0.314-0.076-0.494,0.184-0.494c0.26,0,0.472,0.18,0.607,0.494
								l0.082,0.191h-0.251l-0.09-0.21c-0.06-0.14-0.136-0.194-0.22-0.194c-0.085,0-0.115,0.053-0.055,0.194l0.454,1.06
								c0.06,0.14,0.135,0.191,0.22,0.191c0.084,0,0.115-0.051,0.055-0.191l-0.12-0.281H169.272z"/>
							<path style="fill:#4293A1;" d="M169.804,227.396c-0.135-0.314-0.069-0.494,0.191-0.494c0.26,0,0.479,0.18,0.614,0.494
								l0.438,1.021c0.135,0.315,0.07,0.494-0.19,0.494c-0.261,0-0.48-0.18-0.615-0.494L169.804,227.396z M170.516,228.437
								c0.06,0.14,0.136,0.194,0.221,0.194c0.084,0,0.114-0.053,0.054-0.194l-0.455-1.06c-0.06-0.14-0.136-0.194-0.22-0.194
								c-0.084,0-0.115,0.053-0.055,0.194L170.516,228.437z"/>
							<path style="fill:#4293A1;" d="M171.765,227.467l0.61,1.422h-0.238l-0.842-1.964h0.333l0.776,1.176l-0.504-1.176h0.236
								l0.842,1.964h-0.272L171.765,227.467z"/>
							<path style="fill:#4293A1;" d="M172.968,226.925h0.819l0.12,0.281h-0.277l0.721,1.683h-0.265l-0.721-1.683h-0.277
								L172.968,226.925z"/>
							<path style="fill:#4293A1;" d="M176.23,228.889h-0.268l-0.199-0.356h-0.325l0.107,0.356h-0.244l-0.572-1.964h0.388
								L176.23,228.889z M175.359,228.266h0.255l-0.553-0.993L175.359,228.266z"/>
							<path style="fill:#4293A1;" d="M177.527,228.156l0.112,0.261c0.135,0.315,0.077,0.494-0.184,0.494
								c-0.26,0-0.473-0.18-0.607-0.494l-0.438-1.021c-0.135-0.314-0.076-0.494,0.184-0.494c0.26,0,0.472,0.18,0.607,0.494
								l0.082,0.191h-0.251l-0.09-0.21c-0.06-0.14-0.136-0.194-0.22-0.194c-0.085,0-0.115,0.053-0.055,0.194l0.454,1.06
								c0.06,0.14,0.135,0.191,0.22,0.191c0.084,0,0.115-0.051,0.055-0.191l-0.12-0.281H177.527z"/>
							<path style="fill:#4293A1;" d="M177.802,226.925h0.819l0.12,0.281h-0.277l0.721,1.683h-0.265l-0.721-1.683h-0.277
								L177.802,226.925z"/>
							<path style="fill:#4293A1;" d="M180.802,226.925l0.649,1.515c0.06,0.14,0.135,0.191,0.219,0.191
								c0.084,0,0.116-0.051,0.056-0.191l-0.649-1.515h0.251l0.641,1.495c0.135,0.314,0.077,0.494-0.183,0.494
								c-0.261,0-0.472-0.18-0.607-0.494l-0.641-1.495H180.802z"/>
							<path style="fill:#4293A1;" d="M182.574,226.903c0.258,0,0.468,0.18,0.602,0.494l0.027,0.062h-0.251l-0.035-0.081
								c-0.06-0.14-0.131-0.194-0.216-0.194c-0.084,0-0.11,0.053-0.05,0.194c0.173,0.404,0.724,0.48,0.964,1.04
								c0.135,0.315,0.077,0.494-0.184,0.494c-0.26,0-0.472-0.18-0.607-0.494l-0.052-0.12h0.251l0.06,0.14
								c0.06,0.14,0.135,0.191,0.219,0.191c0.084,0,0.116-0.051,0.055-0.191c-0.173-0.404-0.724-0.479-0.965-1.041
								C182.26,227.082,182.316,226.903,182.574,226.903z"/>
						</g>
					</g>
				</g>
				<g>
					<rect x="45.074" y="220.098" style="fill:#95E1EF;" width="4.567" height="0.398"/>
					<rect x="45.867" y="221.947" style="fill:#95E1EF;" width="4.567" height="0.397"/>
					<rect x="46.659" y="223.795" style="fill:#95E1EF;" width="4.567" height="0.398"/>
				</g>
				<g>
					<path style="fill:#95E1EF;" d="M225.157,226.109c-1.265,0-2.803-1.186-3.428-2.644c-0.358-0.835-0.361-1.62-0.01-2.153
						c0.264-0.4,0.71-0.62,1.257-0.62c1.265,0,2.803,1.186,3.428,2.643v0.001c0.358,0.835,0.361,1.62,0.01,2.153
						C226.149,225.889,225.703,226.109,225.157,226.109z M222.976,221.02c-0.439,0-0.779,0.164-0.983,0.473
						c-0.29,0.439-0.276,1.11,0.038,1.842c0.578,1.348,1.98,2.445,3.126,2.445c0.439,0,0.778-0.164,0.982-0.473
						c0.29-0.439,0.276-1.111-0.038-1.843C225.523,222.117,224.121,221.02,222.976,221.02z"/>
					<polygon style="fill:#95E1EF;" points="227.944,226.488 226.313,225.222 226.515,224.962 228.145,226.229 					"/>
				</g>
				<g>
					<path style="fill:#FFFFFF;" d="M86.049,306.727c0.375,0.875,0.07,1.585-0.683,1.585c-0.752,0-1.666-0.71-2.042-1.585
						c-0.375-0.875-0.069-1.585,0.683-1.585C84.76,305.142,85.674,305.851,86.049,306.727z"/>
					<path style="fill:#0B4854;" d="M91.658,306.727c0.375,0.875,0.07,1.585-0.683,1.585c-0.752,0-1.666-0.71-2.042-1.585
						c-0.375-0.875-0.07-1.585,0.683-1.585C90.369,305.142,91.283,305.851,91.658,306.727z"/>
					<path style="fill:#0B4854;" d="M97.267,306.727c0.375,0.875,0.07,1.585-0.683,1.585c-0.752,0-1.666-0.71-2.042-1.585
						c-0.375-0.875-0.07-1.585,0.683-1.585C95.978,305.142,96.892,305.851,97.267,306.727z"/>
				</g>
				<polygon style="fill:#FFFFFF;" points="76.599,275.869 70.328,271 72.329,266.354 72.771,266.544 70.916,270.848 76.894,275.49 
									"/>
				<polygon style="fill:#FFFFFF;" points="241.625,275.774 241.184,275.585 243.038,271.28 237.06,266.639 237.355,266.26 
					243.627,271.128 				"/>
			</g>
		</g>
		<path style="fill:#0B4854;" d="M27.308,203.04l-0.558,0.386c-1.754,1.213-2.41,3.494-1.568,5.453l56.943,132.49
			c0.98,2.281,3.629,3.33,5.906,2.338l0,0L27.308,203.04z"/>
		<g>
			<path style="fill:#CE5959;" d="M323.832,251.348c0,0,18.501-13.947,30.316-14.604c12.635,21.331,17.721,56.774,17.721,56.774
				l-26.91,1.477c0,0-11.745-27.238-15.636-33.31c-14.392,13.455-25.386,18.87-25.386,18.87l-15.158-22.808l3.539-1.969
				l14.589,13.947L323.832,251.348z"/>
			<path style="fill:#0B4854;" d="M280.042,246.344l38.1,49.469c0,0,6.691-0.773,11.181-7.377l-39.756-49.62L280.042,246.344z"/>
			<polyline style="fill:#CE5959;" points="348.897,243.8 345.287,275.141 315.915,283.673 316.9,286.791 351.03,284.493 
				359.563,252.168 			"/>
			<path style="fill:#D1223B;" d="M316.9,286.791c5.681-0.492,11.364-0.951,17.05-1.374l17.061-1.214l-0.262,0.216l4.332-16.145
				c1.46-5.378,2.957-10.745,4.482-16.106c-1.319,5.415-2.666,10.822-4.051,16.219l-4.2,16.18l-0.053,0.203l-0.21,0.013
				l-17.069,1.083C328.289,286.211,322.595,286.517,316.9,286.791z"/>
			<path style="fill:#D1223B;" d="M348.897,243.8c-0.493,5.236-1.018,10.468-1.58,15.696l-1.741,15.678l-0.021,0.193l-0.186,0.053
				l-14.705,4.2c-4.906,1.385-9.823,2.732-14.748,4.053c4.866-1.523,9.739-3.021,14.624-4.48l14.667-4.332l-0.208,0.246
				l1.869-15.663C347.508,254.225,348.186,249.011,348.897,243.8z"/>
			<path style="fill:#FFC88F;" d="M312.139,219.8c0,0,3.2,15.325,8.504,21.559c3.338-0.316,9.747-4.491,9.747-4.491l2.442,7.313
				c0,0,1.312,10.316,4.817-1.061c-4.424-14.737-11.531-32.926-11.531-32.926S314.828,214.763,312.139,219.8z"/>
			<path style="fill:#0B4854;" d="M330.735,222.538h-2.923l-4.634-9.476c0,0-9.93,7.537-12.105,8.119
				c-2.175,0.582-2.459-0.175-0.378-2.728c-3.972,3.026-8.89,3.405-2.648-1.702c6.242-5.107,18.583-8.133,18.583-8.133
				L330.735,222.538z"/>
			<path style="fill:#FFC88F;" d="M328.57,224.04c0,0,0.547-5.181,3.634-1.595c3.088,3.587,0.526,7.129-1.349,5.824"/>
			<path style="fill:#FFA967;" d="M328.57,224.04c0.021-0.598,0.137-1.191,0.338-1.77c0.199-0.545,0.607-1.202,1.355-1.267
				c0.735-0.034,1.236,0.464,1.686,0.856c0.439,0.431,0.838,0.901,1.156,1.432c0.628,1.05,0.964,2.368,0.585,3.589
				c-0.186,0.596-0.547,1.163-1.095,1.493c-0.544,0.331-1.285,0.303-1.739-0.104c0.523,0.311,1.171,0.252,1.608-0.096
				c0.455-0.326,0.741-0.852,0.865-1.395c0.119-0.548,0.123-1.118,0.015-1.674c-0.147-0.545-0.334-1.089-0.657-1.565
				c-0.279-0.497-0.648-0.952-1.046-1.364c-0.398-0.386-0.868-0.793-1.367-0.8c-0.499-0.011-0.915,0.469-1.148,0.989
				C328.863,222.883,328.699,223.459,328.57,224.04z"/>
			<polygon style="fill:#0B4854;" points="344.959,294.995 307.935,300.047 329.539,339.248 335.123,341.678 324.32,309.757 
				360.247,311.335 395.324,392.17 402.243,394.84 371.869,293.518 			"/>
			<polygon style="fill:#CE5959;" points="329.539,339.248 313.79,343.546 335.952,343.546 335.123,341.678 			"/>
			<polygon style="fill:#CE5959;" points="395.324,392.17 393.849,404.676 383.919,409.317 396.866,409.317 404.872,396.902 
				402.243,394.84 			"/>
			<path style="fill:#FFC88F;" d="M316.178,284.506c0,0-4.268-2.189-5.648-2.327s-0.828,0.326,0,1.163
				c-1.794-0.336-2.44,0.423-0.84,2.838c1.599,2.415,4.887,3.289,7.21,0.61L316.178,284.506z"/>
			<path style="fill:#FFC88F;" d="M289.354,258.949c-0.276,0-3.587-2.001-4.622-4.622c-1.035-2.622,0.966-3.449,2.76-3.932
				c1.794-0.483,6.899,2.484,3.036,5.036c-1.38,0.483-2.334,0.897-2.334,0.897L289.354,258.949z"/>
			<path style="fill:#CE5959;" d="M273.599,194.939c-17.364-17.364-37.912-24.969-45.895-16.987
				c-1.709,1.709-2.699,3.998-3.036,6.705c9.935-1.237,25.544,6.376,39.19,20.023c13.646,13.646,21.26,29.255,20.022,39.19
				c2.707-0.337,4.996-1.326,6.705-3.036C298.569,232.852,290.963,212.304,273.599,194.939z"/>
			
				<ellipse transform="matrix(0.7071 -0.7071 0.7071 0.7071 -77.0322 242.5556)" style="opacity:0.3;fill:#FFFFFF;" cx="254.274" cy="214.264" rx="20.441" ry="44.464"/>
			<path style="opacity:0.3;fill:#FFFFFF;" d="M224.979,184.969c1.334-1.551,3.322-2.484,5.353-2.877
				c2.05-0.383,4.157-0.307,6.194,0.03c4.094,0.66,7.952,2.23,11.581,4.113c3.623,1.916,7.024,4.211,10.195,6.772
				c3.178,2.553,6.105,5.401,8.773,8.458c-3.069-2.655-6.215-5.184-9.465-7.552c-3.267-2.342-6.635-4.539-10.183-6.385
				c-3.529-1.864-7.236-3.434-11.108-4.289c-1.934-0.417-3.919-0.639-5.883-0.442C228.467,182.946,226.543,183.663,224.979,184.969z
				"/>
			<path style="fill:#CE5959;" d="M245.355,223.183c-16.566-16.566-23.821-36.169-16.206-43.785l-1.446-1.446l-9.741,9.741
				c-7.983,7.983-0.378,28.531,16.987,45.895c17.364,17.364,37.912,24.97,45.895,16.987l9.741-9.741l-1.446-1.446
				C281.524,247.004,261.921,239.749,245.355,223.183z"/>
			<path style="fill:#ED7070;" d="M273.599,194.939c-17.364-17.364-37.912-24.969-45.895-16.987
				c-7.983,7.983-0.378,28.531,16.987,45.895c17.364,17.364,37.912,24.969,45.895,16.987
				C298.569,232.852,290.963,212.304,273.599,194.939z M289.341,238.903c-7.39,7.39-26.746,0.015-43.234-16.472
				s-23.862-35.844-16.472-43.234c7.39-7.39,26.746-0.015,43.234,16.472S296.731,231.513,289.341,238.903z"/>
			<g>
				<path style="fill:#FFA967;" d="M319.773,227.814c0.156,0.701,0.301,1.404,0.423,2.109c0.118,0.706,0.261,1.409,0.355,2.118
					l0.012,0.093l-0.061,0.074c-0.716,0.859-1.417,1.731-2.163,2.563l-0.258-0.361c0.84-0.32,1.677-0.646,2.53-0.933
					c0.847-0.302,1.702-0.584,2.567-0.84c-0.806,0.406-1.622,0.785-2.446,1.146c-0.818,0.375-1.651,0.71-2.482,1.053l-0.824,0.34
					l0.566-0.7c0.703-0.87,1.453-1.7,2.187-2.543l-0.049,0.166c-0.094-0.709-0.141-1.425-0.212-2.137
					C319.85,229.248,319.807,228.532,319.773,227.814z"/>
				<path style="fill:#FFA967;" d="M326.488,230.084c0.231,0.745,0.321,1.531,0.296,2.321c-0.029,0.788-0.209,1.597-0.64,2.312
					c-0.446,0.71-1.254,1.184-2.058,1.262c-0.402,0.093-0.802,0.001-1.195-0.009c-0.386-0.083-0.764-0.191-1.132-0.306
					c0.775,0.051,1.544,0.137,2.258-0.053c0.711-0.147,1.359-0.531,1.719-1.158c0.403-0.595,0.572-1.338,0.676-2.079
					C326.511,231.627,326.521,230.859,326.488,230.084z"/>
				<path style="fill:#FFA967;" d="M331.107,223.275c-0.314-0.097-0.591,0.034-0.665,0.288c-0.096,0.245-0.1,0.537-0.092,0.828
					c0.007,0.584,0.123,1.176,0.191,1.775l-0.32-0.156c0.179-0.08,0.361-0.158,0.571-0.203c0.117-0.006,0.227-0.021,0.366,0.026
					c0.137,0.037,0.256,0.171,0.287,0.296c0.059,0.247-0.001,0.439-0.071,0.619c-0.072,0.178-0.157,0.347-0.268,0.499
					c0.036-0.184,0.075-0.364,0.089-0.542c0.01-0.174,0.017-0.361-0.038-0.468c-0.046-0.091-0.127-0.065-0.279-0.03
					c-0.148,0.045-0.301,0.118-0.453,0.198l-0.271,0.142l-0.049-0.299c-0.05-0.307-0.14-0.606-0.153-0.921
					c-0.028-0.311-0.04-0.627-0.022-0.948c0.012-0.317,0.095-0.65,0.275-0.95c0.091-0.148,0.255-0.28,0.439-0.295
					C330.824,223.112,330.986,223.178,331.107,223.275z"/>
			</g>
			<ellipse style="fill:#0B4854;" cx="321.082" cy="227.167" rx="0.41" ry="0.648"/>
			<path style="fill:#0B4854;" d="M318.987,228.546c0,0.358-0.184,0.648-0.41,0.648c-0.227,0-0.411-0.29-0.411-0.648
				s0.184-0.648,0.411-0.648C318.803,227.898,318.987,228.188,318.987,228.546z"/>
			<path style="fill:#0B4854;" d="M318.576,225.609c0,0-2.291-0.668-2.661,1.092"/>
			<path style="fill:#0B4854;" d="M320.097,225.22c0,0,0.728-2.16,2.731-0.947"/>
		</g>
		<g>
			<path style="fill:#FFC88F;" d="M164.462,197.534c0,0-2.695,2.008-5.351,1.033l2.403-3.587L164.462,197.534z"/>
			<path style="fill:#0B4854;" d="M147.064,188.776l21.908-30.357c0,0,3.022-1.347,7.571,1.751c4.549,3.098,2.933,7.946,2.933,7.946
				l-19.973,29.722L147.064,188.776z"/>
			<path style="fill:#FFC88F;" d="M83.836,216.528c0,0-1.227,10.193,4.311,13.727s0-10.805,0-10.805L83.836,216.528z"/>
			<path style="fill:#FFFFFF;" d="M121.945,159.273l-10.732,2.696c0,0-23.775,39.776-28.295,53.881l3.93,2.905l27.705-42.427
				c0,0-2.751,7.059,4.912,9.417l2.479,17.295h21.213l4.798-34.39l22.596,2.546l-9.039,23.784l2.947,2.554l17.488-30.653
				l-33.796-10.807l-7.516,0.675l-9.346,5.22L121.945,159.273z"/>
			<polygon style="fill:#FFC88F;" points="135.812,147.351 135.812,156.749 140.637,156.749 133.027,171.195 121.945,159.273 
				129.894,157.793 131.291,148.569 			"/>
			<path style="fill:#FFC88F;" d="M122.584,127.928c0,0-3.307,19.005,8.18,25.618c9.398-3.307,12.357-9.606,11.313-28.055
				C137.204,118.181,124.847,122.01,122.584,127.928z"/>
			<path style="fill:#CE5959;" d="M138.954,125.401c0,0-5.828,4.147-9.975,5.267c-4.147,1.121,2.311-2.129,2.311-2.129l-8.251,2.365
				l-0.745,6.612l-2.207-6.847c0,0-4.745,0.336,0-3.362c-1.755-0.448-1.756-1.345,2.055-3.923c0,0-3.698,0.685,0.897-1.899
				c4.595-2.584,16.251-4.713,21.406-4.377c0.897,7.173-2.17,19.053-2.17,19.053S138.618,129.211,138.954,125.401z"/>
			<path style="fill:#FFC88F;" d="M141.239,135.721c0,0,2.301-3.797,4.042-0.174c1.74,3.623-2.688,8.496-4.042,5.189
				C139.885,137.43,141.239,135.721,141.239,135.721z"/>
			<path style="fill:#FFC88F;" d="M123.106,137.515c0,0-0.522-2.348-2.263-1.826c-1.741,0.522-0.121,7.102,1.299,7.484
				c1.42,0.382,1.66-1.338,1.66-1.338L123.106,137.515z"/>
			<g>
				<path style="fill:#FFA967;" d="M131.291,137.908c0.143,0.991,0.2,1.983,0.254,2.974c0.043,0.991,0.044,1.983,0.03,2.974
					l-0.004,0.291l-0.277-0.009l-1.168-0.04l0.124-0.447c0.741,0.512,1.483,1.022,2.183,1.601c-0.838-0.351-1.635-0.771-2.432-1.189
					l-0.793-0.415l0.918-0.031l1.168-0.04l-0.281,0.281c-0.015-0.991-0.015-1.983,0.027-2.974
					C131.093,139.891,131.149,138.9,131.291,137.908z"/>
				<path style="fill:#FFA967;" d="M136.608,143.229c-0.001,0.791-0.124,1.574-0.319,2.344c-0.195,0.77-0.489,1.531-0.996,2.208
					c-0.262,0.326-0.597,0.64-1.039,0.796c-0.441,0.155-0.947,0.097-1.322-0.112c-0.758-0.41-1.264-1.053-1.652-1.736
					c0.571,0.533,1.166,1.066,1.829,1.323c0.674,0.269,1.297-0.049,1.724-0.631c0.444-0.566,0.745-1.276,1.029-1.984
					C136.138,144.72,136.369,143.979,136.608,143.229z"/>
				<path style="fill:#FFA967;" d="M120.855,137.515c0.049-0.2,0.139-0.39,0.28-0.563c0.125-0.175,0.407-0.327,0.688-0.228
					c0.484,0.226,0.694,0.643,0.872,1.016c0.342,0.772,0.501,1.575,0.616,2.378l0.045,0.311l-0.286-0.02
					c-0.122-0.008-0.248-0.002-0.283,0.028c-0.044,0.017-0.069,0.141-0.039,0.278c0.046,0.281,0.186,0.573,0.321,0.863
					c-0.126-0.102-0.24-0.219-0.342-0.346c-0.101-0.129-0.21-0.258-0.275-0.426c-0.058-0.156-0.134-0.389,0.028-0.627
					c0.181-0.219,0.405-0.23,0.589-0.262l-0.241,0.291c-0.11-0.381-0.19-0.772-0.3-1.148c-0.101-0.38-0.206-0.755-0.334-1.114
					c-0.127-0.351-0.281-0.72-0.508-0.893C121.475,136.907,121.089,137.199,120.855,137.515z"/>
				<path style="fill:#FFA967;" d="M144.238,135.614c-0.41-0.117-0.776,0.053-1.044,0.282c-0.273,0.24-0.455,0.581-0.631,0.914
					c-0.336,0.69-0.558,1.451-0.795,2.214l-0.276-0.293c0.186,0.008,0.366-0.045,0.615,0.124c0.248,0.247,0.119,0.511,0.062,0.649
					c-0.168,0.308-0.389,0.537-0.638,0.742c0.137-0.286,0.291-0.57,0.349-0.848c0.044-0.138,0.004-0.253-0.009-0.223
					c-0.024-0.014-0.184,0.006-0.301,0.036l-0.35,0.089l0.074-0.382c0.078-0.405,0.152-0.813,0.288-1.21
					c0.118-0.4,0.291-0.789,0.506-1.16c0.223-0.365,0.505-0.718,0.901-0.946C143.367,135.358,143.912,135.338,144.238,135.614z"/>
			</g>
			<ellipse style="fill:#0B4854;" cx="128.978" cy="137.812" rx="0.574" ry="0.958"/>
			<path style="fill:#0B4854;" d="M134.188,137.515c0,0.529-0.257,0.958-0.574,0.958c-0.317,0-0.574-0.429-0.574-0.958
				c0-0.529,0.257-0.958,0.574-0.958C133.931,136.558,134.188,136.986,134.188,137.515z"/>
			<path style="fill:#0B4854;" d="M132.21,133.221c0,0,2.602-1.724,4.398,1.129"/>
			<path style="fill:#0B4854;" d="M130.126,133.528c0,0-2.302-2.268-3.55,0.823"/>
			<path style="fill:#FFA967;" d="M135.812,151.012c-0.602,0.769-1.423,1.312-2.269,1.773c-0.869,0.417-1.805,0.742-2.778,0.761
				c0.438-0.212,0.876-0.378,1.299-0.583c0.425-0.196,0.852-0.382,1.259-0.612C134.169,151.953,134.96,151.465,135.812,151.012z"/>
			<path style="fill:#CE5959;" d="M156.646,195.325c-19.22-15.906-43.979-17.71-55.301-4.029c-1.543,1.864-2.745,3.925-3.642,6.126
				c12.617-8.366,33.483-5.197,50.176,8.618c16.601,13.738,23.629,33.498,17.944,47.445c1.91-1.267,3.636-2.79,5.125-4.589
				C182.27,235.216,175.867,211.231,156.646,195.325z"/>
			
				<ellipse transform="matrix(0.6376 -0.7704 0.7704 0.6376 -125.7353 182.6754)" style="opacity:0.3;fill:#FFFFFF;" cx="131.276" cy="224.967" rx="31.519" ry="44.281"/>
			<path style="opacity:0.3;fill:#FFFFFF;" d="M99.05,198.298c1.376-1.905,3.155-3.52,5.122-4.856
				c1.991-1.31,4.21-2.263,6.505-2.925c4.609-1.328,9.505-1.361,14.198-0.617c4.701,0.782,9.247,2.338,13.452,4.51
				c2.103,1.084,4.131,2.305,6.065,3.652c1.909,1.383,3.764,2.835,5.469,4.449c-1.915-1.357-3.839-2.682-5.858-3.847
				c-1.989-1.209-4.046-2.301-6.165-3.241c-4.228-1.889-8.647-3.356-13.196-4.081c-4.535-0.753-9.206-0.758-13.683,0.259
				c-2.236,0.507-4.416,1.307-6.417,2.451C102.508,195.146,100.676,196.607,99.05,198.298z"/>
			<path style="fill:#CE5959;" d="M169.97,248.087c-11.003,13.296-35.066,11.543-53.747-3.916s-24.903-38.769-13.9-52.065
				l-0.978-0.81L91.9,202.425c-11.321,13.681-4.918,37.665,14.302,53.571c19.22,15.906,43.979,17.71,55.301,4.029l9.445-11.128
				L169.97,248.087L169.97,248.087z"/>
			<path style="fill:#ED7070;" d="M156.646,195.325c-19.22-15.906-43.979-17.71-55.301-4.029
				c-11.321,13.681-4.918,37.665,14.302,53.571s43.979,17.71,55.301,4.029C182.27,235.216,175.867,211.231,156.646,195.325z
				 M168.941,247.236c-10.669,12.892-34,11.192-52.112-3.796c-18.112-14.988-24.146-37.59-13.478-50.482s34-11.192,52.112,3.796
				C173.576,211.742,179.61,234.344,168.941,247.236z"/>
		</g>
		<g>
			<polygon style="fill:#0B4854;" points="152.235,308.947 88.341,324.489 92.196,338.076 155.941,322.449 			"/>
			<path style="fill:#FFC88F;" d="M139.277,292.813c0,0,2.441,14.188-3.13,22.194l-9.227-4.525l-1.566,7.832l-4.873-1.044
				l6.788-26.751C127.268,290.518,137.015,290.982,139.277,292.813z"/>
			<path style="fill:#CE5959;" d="M146.387,327.303l-10.84,15.102l-2.557-22.411c0,0-19.122-4.019-26.186-2.558
				c-10.84,9.378-18.773,25.453-18.773,25.453l11.907-0.729l-3.852,10.962l20.462,1.34l9.36-20.096l7.082,19.853l17.782-24.359
				L146.387,327.303z M101.756,337.003l-4.052-0.276l7.725-8.07L101.756,337.003z"/>
			<path style="fill:#0B4854;" d="M139.277,292.813c0,0-2.686,4.629-9.68,6.447c-1.916,5.478-5.422,28.802-5.422,28.802
				s-7.859,2.62-13.754-3.144c1.834-15.719,10.741-41.655,10.741-41.655s16.243,4.555,19.387,7.255
				C141.336,290.861,139.277,292.813,139.277,292.813z"/>
			<path style="fill:#FFC88F;" d="M131.276,300.909c0,0-2.459-5.358-4.733-1.966c-2.274,3.392,2.127,8.231,4.124,5.969"/>
			<path style="fill:#0B4854;" d="M120.48,376.29c-1.383,0.447-24.912,2.531-24.912,2.531l-4.616-3.276l24.57-5.956l8.637,1.787
				L120.48,376.29z"/>
			<path style="fill:#0B4854;" d="M96.085,353.123c0,0-9.692,6.063-10.471,13.852c-0.779,7.789,24.558,9.191,35.783,7.321
				l-16.622,3.427l4.05,3.115c0,0,37.074,1.558,47.667,0.156c6.387-0.935,7.01-6.542-1.714-12.462
				c-8.723-5.919-38.231-14.07-38.231-14.07L96.085,353.123z"/>
			<polygon style="fill:#FFFFFF;" points="108.825,380.839 90.953,391.181 102.419,376.29 104.774,377.723 			"/>
			<polygon style="fill:#FFFFFF;" points="95.569,378.821 79.338,388.947 88.031,374.205 90.953,375.545 			"/>
			<path style="fill:#FFB500;" d="M194.552,280.254c22.033-5.434,42.756-0.67,50.53,10.642c0.457-2.577,0.413-5.153-0.208-7.673
				c-3.819-15.482-27.657-22.917-53.244-16.606c-25.587,6.311-43.234,23.978-39.415,39.461c0.53,2.151,1.46,4.14,2.714,5.965
				C157.28,298.784,173.128,285.539,194.552,280.254z"/>
			
				<ellipse transform="matrix(0.9709 -0.2395 0.2395 0.9709 -66.3595 56.7837)" style="opacity:0.3;fill:#FFFFFF;" cx="200.492" cy="301.469" rx="46.621" ry="28.21"/>
			<path style="opacity:0.3;fill:#FFFFFF;" d="M194.28,276.282c-4.366,1.386-8.615,3.05-12.667,5.084
				c-4.047,2.034-7.909,4.435-11.376,7.309c-3.471,2.853-6.572,6.196-8.803,10.08c-1.087,1.952-1.942,4.041-2.42,6.234
				c-0.509,2.191-0.511,4.485-0.149,6.746c-0.686-2.188-0.843-4.556-0.557-6.868c0.324-2.311,1.07-4.562,2.119-6.65
				c2.127-4.18,5.318-7.71,8.88-10.67c3.594-2.942,7.596-5.35,11.819-7.21C185.336,278.443,189.778,277.119,194.28,276.282z"/>
			<path style="fill:#FFB500;" d="M248.763,296.862l-3.394-13.761l-1.589,0.392l0,0c3.729,15.117-13.502,32.367-38.485,38.529
				c-24.983,6.162-48.259-1.097-51.987-16.215l-1.589,0.392l3.341,13.5c0.02,0.087,0.031,0.174,0.053,0.261
				c0.022,0.09,0.054,0.176,0.077,0.265l0.069,0.279l0.011-0.003c4.281,15.275,28.098,22.546,53.655,16.242
				C234.787,330.367,252.623,312.51,248.763,296.862z"/>
			<path style="fill:#FF8B00;" d="M245.369,283.101c-3.86-15.648-27.953-23.163-53.814-16.784
				c-25.861,6.379-43.696,24.235-39.837,39.883c3.86,15.648,27.953,23.163,53.813,16.784
				C231.393,316.606,249.229,298.749,245.369,283.101z M205.1,321.231c-24.26,5.984-46.863-1.066-50.483-15.745
				c-3.621-14.68,13.111-31.431,37.371-37.415c24.26-5.984,46.863,1.066,50.483,15.746
				C246.092,298.496,229.36,315.247,205.1,321.231z"/>
			<polygon style="fill:#FFC88F;" points="146.387,327.303 147.748,324.457 154.124,322.894 149.447,329.088 			"/>
			<path style="fill:#FFC88F;" d="M139.193,307.163l1.536,0.646c0,0-2.242,1.461-2.316,1.138
				C138.338,308.624,139.193,307.163,139.193,307.163z"/>
			<g>
				<path style="fill:#FFA967;" d="M128.144,305.087c0.26,0.017,0.481,0.061,0.696,0.082c0.216,0.015,0.413,0.041,0.607,0.031
					c0.194,0.003,0.378-0.028,0.577-0.068c0.199-0.045,0.4-0.129,0.643-0.22c-0.121,0.506-0.666,0.873-1.21,0.872
					c-0.27-0.003-0.534-0.06-0.757-0.19C128.476,305.471,128.279,305.311,128.144,305.087z"/>
				<path style="fill:#FFA967;" d="M131.276,300.909c-0.185-0.11-0.316-0.239-0.441-0.37c-0.131-0.128-0.225-0.274-0.323-0.419
					c-0.085-0.152-0.174-0.301-0.23-0.474c-0.06-0.171-0.121-0.343-0.137-0.559c0.206,0.065,0.363,0.178,0.506,0.302
					c0.149,0.121,0.257,0.271,0.358,0.425c0.09,0.161,0.177,0.324,0.218,0.51C131.274,300.506,131.309,300.695,131.276,300.909z"/>
				<path style="fill:#FFA967;" d="M137.523,310.476c-0.298,0.397-0.699,0.707-1.177,0.913c-0.46,0.212-1.126,0.255-1.613-0.121
					c-0.485-0.365-0.651-0.903-0.761-1.388c-0.023-0.251-0.072-0.497-0.07-0.743c0.022-0.249,0.025-0.493,0.065-0.735
					c0.165,0.469,0.272,0.927,0.437,1.356c0.189,0.403,0.359,0.832,0.676,1.042c0.288,0.24,0.7,0.245,1.131,0.164
					C136.643,310.87,137.079,310.683,137.523,310.476z"/>
				<path style="fill:#FFA967;" d="M127.965,300.252c0.654-0.224,1.462,0.004,1.986,0.532c0.264,0.263,0.448,0.587,0.587,0.918
					c0.063,0.168,0.109,0.339,0.162,0.509l0.082,0.519l0.055,0.349l-0.338-0.06c-0.126-0.022-0.254-0.06-0.372-0.07
					c-0.113-0.016-0.236,0.007-0.227,0.006c-0.03-0.006-0.021,0.156,0.041,0.268c0.056,0.121,0.13,0.24,0.204,0.363
					c-0.127-0.068-0.244-0.154-0.35-0.26c-0.087-0.108-0.257-0.22-0.187-0.498c0.137-0.271,0.358-0.254,0.504-0.292
					c0.16-0.019,0.309-0.021,0.459-0.013l-0.283,0.289c-0.152-0.619-0.366-1.201-0.734-1.666c-0.19-0.222-0.407-0.432-0.678-0.581
					C128.605,300.423,128.304,300.301,127.965,300.252z"/>
			</g>
			<path style="fill:#0B4854;" d="M138.19,303.705c0,0.393-0.149,0.711-0.333,0.711c-0.184,0-0.333-0.318-0.333-0.711
				c0-0.393,0.149-0.711,0.333-0.711C138.041,302.993,138.19,303.312,138.19,303.705z"/>
			<path style="fill:#0B4854;" d="M139.079,300.243c0,0-1.334-1.861-2.667,0"/>
		</g>
	</g>
	<g>
		<path style="fill:#ED7070;" d="M390.432,74.832c-29.715,0-53.804,24.089-53.804,53.804c0,11.451,3.588,22.058,9.686,30.781l0,0
			l-22.712,46.243l37.306-32.052c8.477,5.576,18.618,8.831,29.524,8.831c29.715,0,53.804-24.089,53.804-53.804
			S420.148,74.832,390.432,74.832z"/>
		<text transform="matrix(1 0 0 1 361.4481 123.9406)"><tspan x="0" y="0" style="fill:#FFFFFF; font-family:'ZingRustDemo-Base'; font-size:19.0328px; letter-spacing:3;">LETS</tspan><tspan x="-16.711" y="19.299" style="fill:#FFFFFF; font-family:'ZingRustDemo-Base'; font-size:19.0328px; letter-spacing:3;">SEARCH!</tspan></text>
	</g>
</g>
<g id="DESIGNED_BY_FREEPIK">
	<g>
		<g id="XMLID_1_">
			<g id="XMLID_46_">
				<path id="XMLID_54_" style="fill:#FFFFFF;" d="M260.104,475.465c-0.433,0.443-0.804,0.932-1.108,1.453l-0.465-0.241
					c-0.067-0.297-0.35-0.502-0.659-0.466c-0.331,0.039-0.567,0.339-0.529,0.67c0.039,0.331,0.339,0.567,0.67,0.528
					c0.065-0.007,0.127-0.025,0.184-0.052l0.451,0.234c-0.251,0.554-0.433,1.139-0.539,1.743l0.747,0.132
					c0.229-1.306,0.85-2.507,1.792-3.473L260.104,475.465z"/>
				<path id="XMLID_53_" style="fill:#FFFFFF;" d="M265.591,473.163c-0.171,0-0.341,0.006-0.509,0.017l-0.074-0.626
					c0.188-0.149,0.296-0.389,0.266-0.645c-0.046-0.393-0.402-0.674-0.795-0.628c-0.394,0.046-0.675,0.402-0.628,0.796
					c0.03,0.254,0.189,0.461,0.404,0.564l0.073,0.624c-0.714,0.116-1.402,0.332-2.06,0.646l0.327,0.685
					c0.935-0.447,1.941-0.674,2.995-0.674c0.497,0,0.993,0.053,1.476,0.158l0.16-0.741
					C266.692,473.222,266.142,473.163,265.591,473.163z"/>
				<path id="XMLID_52_" style="fill:#FFFFFF;" d="M272.194,475.71c0.331-0.04,0.566-0.341,0.525-0.672
					c-0.04-0.331-0.341-0.566-0.672-0.525c-0.31,0.038-0.535,0.304-0.53,0.608l-0.416,0.363c-0.418-0.43-0.89-0.813-1.407-1.14
					l-0.404,0.642c1.135,0.715,2.021,1.727,2.564,2.925l0.69-0.313c-0.251-0.554-0.567-1.071-0.942-1.545l0.402-0.351
					C272.065,475.715,272.128,475.719,272.194,475.71z"/>
				<path id="XMLID_51_" style="fill:#FFFFFF;" d="M265.044,483.371c-0.386,0.023-0.775,0.035-1.157,0.035
					c-0.88,0-1.733-0.061-2.479-0.18c-0.391-0.062-0.846-0.154-1.271-0.292c1.047,1.861,3.069,3.125,5.389,3.125
					c2.855,0,5.263-1.916,5.949-4.503c-0.682,0.449-1.505,0.825-2.458,1.122C267.838,483.047,266.463,483.286,265.044,483.371z"/>
				<path id="XMLID_47_" style="fill:#FFFFFF;" d="M265.591,474.68c-3.352,0-6.079,2.666-6.079,5.943
					c0,0.425,0.046,0.849,0.137,1.261c0.674,0.483,2.706,0.891,5.348,0.731c2.88-0.174,5.297-0.958,6.672-2.159
					c-0.005-0.194-0.021-0.39-0.045-0.581C271.244,476.913,268.65,474.68,265.591,474.68z M263.432,481.194
					c-1.02,0-1.85-0.83-1.85-1.85c0-1.021,0.83-1.851,1.85-1.851s1.85,0.83,1.85,1.851
					C265.282,480.364,264.452,481.194,263.432,481.194z M268.169,480.286c-0.75,0-1.36-0.61-1.36-1.36s0.61-1.36,1.36-1.36
					s1.36,0.61,1.36,1.36S268.919,480.286,268.169,480.286z"/>
			</g>
			<path id="XMLID_44_" style="fill:#FFFFFF;" d="M281.595,476.547c-0.295-0.116-0.806-0.31-1.383-0.238
				c-0.551,0.069-0.844,0.341-0.844,1.007v0.866h2.229v1.717h-2.229v5.455h-1.932v-5.455h-1.339v-1.717h1.339v-0.889
				c0-1.68,0.895-2.782,2.568-2.782c0.642,0,1.157,0.121,1.59,0.308V476.547z"/>
			<path id="XMLID_42_" style="fill:#FFFFFF;" d="M286.297,479.878c-0.177-0.029-0.358-0.046-0.525-0.046
				c-0.896,0-1.51,0.548-1.51,1.613v3.908h-1.933v-7.172h1.873v0.784c0.451-0.673,1.14-0.977,2.02-0.977
				c0.414,0,0.848,0.128,1.095,0.337L286.297,479.878z"/>
			<path id="XMLID_9_" style="fill:#FFFFFF;" d="M293.965,481.757c0,0.222-0.016,0.488-0.037,0.651h-5.085
				c0.207,1.036,0.933,1.487,1.843,1.487c0.622,0,1.295-0.252,1.813-0.689l1.133,1.243c-0.814,0.748-1.851,1.089-3.057,1.089
				c-2.198,0-3.724-1.496-3.724-3.753c0-2.258,1.48-3.797,3.627-3.797C292.543,477.989,293.957,479.522,293.965,481.757z
				 M288.851,481.091h3.175c-0.178-0.918-0.732-1.436-1.562-1.436C289.554,479.654,289.021,480.202,288.851,481.091z"/>
			<path id="XMLID_7_" style="fill:#FFFFFF;" d="M301.619,481.757c0,0.222-0.016,0.488-0.037,0.651h-5.085
				c0.207,1.036,0.933,1.487,1.843,1.487c0.622,0,1.296-0.252,1.814-0.689l1.133,1.243c-0.814,0.748-1.851,1.089-3.058,1.089
				c-2.198,0-3.723-1.496-3.723-3.753c0-2.258,1.48-3.797,3.627-3.797C300.197,477.989,301.611,479.522,301.619,481.757z
				 M296.504,481.091h3.175c-0.178-0.918-0.733-1.436-1.561-1.436C297.207,479.654,296.674,480.202,296.504,481.091z"/>
			<path id="XMLID_28_" style="fill:#FFFFFF;" d="M309.964,481.764c0,2.154-1.495,3.775-3.472,3.775
				c-0.962,0-1.644-0.378-2.109-0.933v3.708h-1.925v-10.133h1.888v0.792c0.467-0.585,1.154-0.984,2.139-0.984
				C308.469,477.989,309.964,479.61,309.964,481.764z M304.287,481.764c0,1.133,0.748,1.977,1.844,1.977
				c1.14,0,1.85-0.881,1.85-1.977c0-1.095-0.71-1.976-1.85-1.976C305.035,479.788,304.287,480.632,304.287,481.764z"/>
			<path id="XMLID_4_" style="fill:#FFFFFF;" d="M313.068,475.835c0,0.696-0.541,1.23-1.236,1.23c-0.696,0-1.228-0.533-1.228-1.23
				c0-0.695,0.532-1.243,1.228-1.243C312.527,474.592,313.068,475.14,313.068,475.835z M312.808,485.353h-1.932v-7.172h1.932
				V485.353z"/>
			<path id="XMLID_2_" style="fill:#FFFFFF;" d="M316.032,480.735l2.702-2.554h2.368l-3.478,3.375l3.501,3.797h-2.376l-2.717-2.901
				v2.901H314.1v-10.658h1.932V480.735z"/>
		</g>
		<g>
			<path style="fill:#FFFFFF;" d="M184.412,485.289v-1.055c-0.527,0.718-1.391,1.23-2.387,1.23c-1.846,0-3.149-1.406-3.149-3.706
				c0-2.256,1.289-3.721,3.149-3.721c0.952,0,1.816,0.469,2.387,1.245v-3.765h1.099v9.771H184.412z M184.412,483.37v-3.208
				c-0.395-0.615-1.245-1.143-2.124-1.143c-1.42,0-2.27,1.172-2.27,2.739c0,1.567,0.85,2.725,2.27,2.725
				C183.167,484.483,184.017,483.985,184.412,483.37z"/>
			<path style="fill:#FFFFFF;" d="M186.932,481.744c0-2.051,1.465-3.706,3.486-3.706c2.139,0,3.398,1.67,3.398,3.794v0.278h-5.727
				c0.088,1.333,1.025,2.446,2.549,2.446c0.806,0,1.626-0.322,2.182-0.894l0.527,0.718c-0.703,0.703-1.655,1.084-2.812,1.084
				C188.44,485.465,186.932,483.956,186.932,481.744z M190.403,478.946c-1.509,0-2.256,1.274-2.314,2.358h4.643
				C192.718,480.25,192.015,478.946,190.403,478.946z"/>
			<path style="fill:#FFFFFF;" d="M194.607,484.352l0.571-0.791c0.469,0.542,1.362,1.011,2.329,1.011c1.085,0,1.67-0.513,1.67-1.216
				c0-1.714-4.38-0.659-4.38-3.281c0-1.099,0.952-2.036,2.636-2.036c1.202,0,2.051,0.454,2.622,1.025l-0.513,0.762
				c-0.424-0.513-1.201-0.894-2.109-0.894c-0.966,0-1.567,0.483-1.567,1.113c0,1.553,4.379,0.527,4.379,3.281
				c0,1.186-0.952,2.139-2.783,2.139C196.306,485.465,195.325,485.113,194.607,484.352z"/>
			<path style="fill:#FFFFFF;" d="M201.477,476.471c0-0.41,0.337-0.747,0.732-0.747c0.41,0,0.747,0.337,0.747,0.747
				c0,0.41-0.337,0.732-0.747,0.732C201.814,477.203,201.477,476.881,201.477,476.471z M201.667,485.289v-7.075h1.099v7.075H201.667
				z"/>
			<path style="fill:#FFFFFF;" d="M204.582,487.105l0.556-0.82c0.586,0.703,1.289,0.967,2.3,0.967c1.172,0,2.27-0.571,2.27-2.124
				v-1.011c-0.513,0.718-1.377,1.26-2.373,1.26c-1.846,0-3.149-1.377-3.149-3.662c0-2.271,1.289-3.677,3.149-3.677
				c0.952,0,1.802,0.469,2.373,1.245v-1.069h1.099v6.87c0,2.344-1.641,3.076-3.369,3.076
				C206.237,488.16,205.416,487.925,204.582,487.105z M209.708,483.253v-3.091c-0.381-0.615-1.23-1.143-2.109-1.143
				c-1.421,0-2.27,1.128-2.27,2.695c0,1.553,0.849,2.695,2.27,2.695C208.478,484.41,209.328,483.868,209.708,483.253z"/>
			<path style="fill:#FFFFFF;" d="M217.413,485.289v-4.629c0-1.245-0.63-1.641-1.582-1.641c-0.864,0-1.684,0.527-2.094,1.099v5.171
				h-1.099v-7.075h1.099v1.025c0.498-0.586,1.464-1.201,2.519-1.201c1.479,0,2.256,0.747,2.256,2.285v4.966H217.413z"/>
			<path style="fill:#FFFFFF;" d="M219.932,481.744c0-2.051,1.465-3.706,3.486-3.706c2.139,0,3.398,1.67,3.398,3.794v0.278h-5.727
				c0.088,1.333,1.025,2.446,2.548,2.446c0.806,0,1.626-0.322,2.183-0.894l0.527,0.718c-0.703,0.703-1.655,1.084-2.813,1.084
				C221.441,485.465,219.932,483.956,219.932,481.744z M223.404,478.946c-1.509,0-2.256,1.274-2.314,2.358h4.643
				C225.718,480.25,225.015,478.946,223.404,478.946z"/>
			<path style="fill:#FFFFFF;" d="M233.35,485.289v-1.055c-0.527,0.718-1.392,1.23-2.388,1.23c-1.845,0-3.149-1.406-3.149-3.706
				c0-2.256,1.289-3.721,3.149-3.721c0.952,0,1.817,0.469,2.388,1.245v-3.765h1.098v9.771H233.35z M233.35,483.37v-3.208
				c-0.396-0.615-1.245-1.143-2.124-1.143c-1.421,0-2.27,1.172-2.27,2.739c0,1.567,0.85,2.725,2.27,2.725
				C232.105,484.483,232.954,483.985,233.35,483.37z"/>
			<path style="fill:#FFFFFF;" d="M239.692,485.289v-9.771h1.099v3.765c0.571-0.776,1.421-1.245,2.388-1.245
				c1.845,0,3.149,1.465,3.149,3.721c0,2.3-1.304,3.706-3.149,3.706c-0.996,0-1.86-0.513-2.388-1.23v1.055H239.692z M242.9,484.483
				c1.436,0,2.285-1.157,2.285-2.725c0-1.567-0.85-2.739-2.285-2.739c-0.864,0-1.729,0.527-2.109,1.143v3.208
				C241.171,483.985,242.036,484.483,242.9,484.483z"/>
			<path style="fill:#FFFFFF;" d="M247.528,487.061c0.161,0.073,0.425,0.117,0.601,0.117c0.483,0,0.806-0.161,1.055-0.747
				l0.469-1.069l-2.959-7.148h1.187l2.358,5.801l2.344-5.801h1.2l-3.544,8.511c-0.425,1.024-1.143,1.421-2.08,1.436
				c-0.234,0-0.601-0.044-0.806-0.104L247.528,487.061z"/>
		</g>
	</g>
</g>
</svg>
