<svg width="32" height="32" viewBox="0 0 32 32" fill="none" xmlns="http://www.w3.org/2000/svg">
<path d="M20.488 8.51099C20.8685 8.89463 21.1549 9.36114 21.325 9.87399L21.873 11.556C21.9184 11.6861 22.0031 11.7989 22.1154 11.8787C22.2278 11.9586 22.3622 12.0014 22.5 12.0014C22.6378 12.0014 22.7722 11.9586 22.8846 11.8787C22.9969 11.7989 23.0816 11.6861 23.127 11.556L23.675 9.87399C23.8454 9.36242 24.1327 8.89761 24.514 8.51642C24.8954 8.13523 25.3604 7.84816 25.872 7.67799L27.556 7.13099C27.6857 7.08516 27.798 7.00026 27.8774 6.88797C27.9568 6.77568 27.9994 6.64152 27.9994 6.50399C27.9994 6.36646 27.9568 6.2323 27.8774 6.12001C27.798 6.00772 27.6857 5.92282 27.556 5.87699L27.522 5.86899L25.839 5.32199C25.3272 5.15195 24.862 4.86494 24.4805 4.48374C24.0989 4.10255 23.8115 3.63766 23.641 3.12599L23.094 1.44399C23.0484 1.31397 22.9635 1.20133 22.8511 1.12164C22.7387 1.04195 22.6043 0.999146 22.4665 0.999146C22.3287 0.999146 22.1943 1.04195 22.0819 1.12164C21.9695 1.20133 21.8846 1.31397 21.839 1.44399L21.292 3.12599L21.278 3.16799C21.1069 3.6668 20.8243 4.12003 20.4517 4.49327C20.0792 4.86651 19.6265 5.14993 19.128 5.32199L17.444 5.86899C17.3143 5.91482 17.202 5.99972 17.1226 6.11201C17.0432 6.2243 17.0006 6.35845 17.0006 6.49599C17.0006 6.63352 17.0432 6.76768 17.1226 6.87997C17.202 6.99226 17.3143 7.07716 17.444 7.12299L19.128 7.66899C19.641 7.83999 20.107 8.12899 20.488 8.51099ZM29.821 13.358L30.739 13.656L30.758 13.66C30.8291 13.6846 30.8907 13.7308 30.9343 13.7921C30.9779 13.8534 31.0013 13.9268 31.0013 14.002C31.0013 14.0772 30.9779 14.1506 30.9343 14.2119C30.8907 14.2731 30.8291 14.3193 30.758 14.344L29.839 14.643C29.5603 14.7363 29.3071 14.8929 29.0993 15.1006C28.8914 15.3083 28.7345 15.5614 28.641 15.84L28.342 16.758C28.3169 16.8286 28.2705 16.8897 28.2093 16.9329C28.1481 16.9761 28.0749 16.9993 28 16.9993C27.9251 16.9993 27.8519 16.9761 27.7907 16.9329C27.7295 16.8897 27.6831 16.8286 27.658 16.758L27.359 15.84C27.2668 15.5601 27.1105 15.3057 26.9025 15.097C26.6945 14.8883 26.4406 14.7311 26.161 14.638L25.242 14.34C25.1709 14.3153 25.1093 14.2691 25.0657 14.2079C25.0221 14.1466 24.9987 14.0732 24.9987 13.998C24.9987 13.9228 25.0221 13.8494 25.0657 13.7881C25.1093 13.7268 25.1709 13.6806 25.242 13.656L26.161 13.357C26.4363 13.2613 26.6859 13.1036 26.8906 12.8961C27.0952 12.6885 27.2493 12.4367 27.341 12.16L27.64 11.242C27.6651 11.1714 27.7115 11.1103 27.7727 11.0671C27.8339 11.0239 27.9071 11.0007 27.982 11.0007C28.0569 11.0007 28.1301 11.0239 28.1913 11.0671C28.2525 11.1103 28.2989 11.1714 28.324 11.242L28.622 12.16C28.7149 12.439 28.8717 12.6926 29.0799 12.9004C29.288 13.1082 29.5418 13.2655 29.821 13.358ZM17 3.99999H18.287L17 4.43999C16.5647 4.5813 16.1852 4.85663 15.9158 5.22662C15.6464 5.59661 15.5008 6.04231 15.5 6.49999C15.5096 6.94126 15.6536 7.36911 15.9126 7.72646C16.1717 8.0838 16.5336 8.35365 16.95 8.49999L18.66 9.05999C18.95 9.15299 19.214 9.31399 19.43 9.52999C19.43 9.56599 19.47 9.60199 19.514 9.64099C19.5422 9.66446 19.5676 9.69095 19.59 9.71999C19.6607 9.80732 19.722 9.90066 19.774 9.99999H11C10.7348 9.99999 10.4804 10.1053 10.2929 10.2929C10.1054 10.4804 10 10.7348 10 11C10 11.2652 10.1054 11.5196 10.2929 11.7071C10.4804 11.8946 10.7348 12 11 12H20.45C20.5565 12.3204 20.7366 12.6113 20.9759 12.8495C21.2152 13.0877 21.507 13.2665 21.8279 13.3715C22.1488 13.4765 22.4898 13.5048 22.8236 13.4542C23.1574 13.4036 23.4747 13.2754 23.75 13.08C23.5931 13.3545 23.5071 13.6639 23.5 13.98C23.5 14.363 23.618 14.737 23.84 15.05C24.064 15.363 24.378 15.6 24.74 15.73L25.74 16.04C25.7933 16.0633 25.84 16.0967 25.88 16.14C25.9242 16.1799 25.9556 16.2322 25.97 16.29L26.27 17.2C26.4075 17.59 26.6625 17.9279 27 18.167V20H20.75C19.888 20 19.0614 20.3424 18.4519 20.9519C17.8424 21.5614 17.5 22.388 17.5 23.25V29H8.25C7.38805 29 6.5614 28.6576 5.9519 28.0481C5.34241 27.4386 5 26.6119 5 25.75V7.24999C5 6.38804 5.34241 5.56139 5.9519 4.95189C6.5614 4.3424 7.38805 3.99999 8.25 3.99999H10V2.99999C10 2.73477 10.1054 2.48042 10.2929 2.29288C10.4804 2.10535 10.7348 1.99999 11 1.99999C11.2652 1.99999 11.5196 2.10535 11.7071 2.29288C11.8946 2.48042 12 2.73477 12 2.99999V3.99999H15V2.99999C15 2.73477 15.1054 2.48042 15.2929 2.29288C15.4804 2.10535 15.7348 1.99999 16 1.99999C16.2652 1.99999 16.5196 2.10535 16.7071 2.29288C16.8946 2.48042 17 2.73477 17 2.99999V3.99999ZM10 16C10 16.2652 10.1054 16.5196 10.2929 16.7071C10.4804 16.8946 10.7348 17 11 17H21C21.2652 17 21.5196 16.8946 21.7071 16.7071C21.8946 16.5196 22 16.2652 22 16C22 15.7348 21.8946 15.4804 21.7071 15.2929C21.5196 15.1053 21.2652 15 21 15H11C10.7348 15 10.4804 15.1053 10.2929 15.2929C10.1054 15.4804 10 15.7348 10 16ZM11 20C10.7348 20 10.4804 20.1053 10.2929 20.2929C10.1054 20.4804 10 20.7348 10 21C10 21.2652 10.1054 21.5196 10.2929 21.7071C10.4804 21.8946 10.7348 22 11 22H15C15.2652 22 15.5196 21.8946 15.7071 21.7071C15.8946 21.5196 16 21.2652 16 21C16 20.7348 15.8946 20.4804 15.7071 20.2929C15.5196 20.1053 15.2652 20 15 20H11ZM19.707 28.707C19.6452 28.7688 19.5756 28.8223 19.5 28.866V23.25C19.5 22.56 20.06 22 20.75 22H26.414L19.707 28.707Z" fill="white"/>
</svg>
