<svg width="26" height="28" viewBox="0 0 26 28" fill="none" xmlns="http://www.w3.org/2000/svg">
<mask id="path-1-inside-1_447_1580" fill="white">
<path d="M15.488 7.51184C15.8685 7.89548 16.1549 8.362 16.325 8.87484L16.873 10.5568C16.9184 10.687 17.0031 10.7998 17.1154 10.8796C17.2278 10.9594 17.3622 11.0023 17.5 11.0023C17.6378 11.0023 17.7722 10.9594 17.8846 10.8796C17.9969 10.7998 18.0816 10.687 18.127 10.5568L18.675 8.87484C18.8454 8.36328 19.1327 7.89846 19.514 7.51727C19.8954 7.13609 20.3604 6.84902 20.872 6.67884L22.556 6.13184C22.6857 6.08602 22.798 6.00111 22.8774 5.88882C22.9568 5.77653 22.9994 5.64238 22.9994 5.50484C22.9994 5.36731 22.9568 5.23316 22.8774 5.12087C22.798 5.00858 22.6857 4.92367 22.556 4.87784L22.522 4.86984L20.839 4.32284C20.3272 4.1528 19.862 3.86579 19.4805 3.4846C19.0989 3.1034 18.8115 2.63852 18.641 2.12684L18.094 0.444844C18.0484 0.314822 17.9635 0.202182 17.8511 0.122492C17.7387 0.042803 17.6043 0 17.4665 0C17.3287 0 17.1943 0.042803 17.0819 0.122492C16.9695 0.202182 16.8846 0.314822 16.839 0.444844L16.292 2.12684L16.278 2.16884C16.1069 2.66765 15.8243 3.12089 15.4517 3.49413C15.0792 3.86736 14.6265 4.15078 14.128 4.32284L12.444 4.86984C12.3143 4.91567 12.202 5.00058 12.1226 5.11287C12.0432 5.22516 12.0006 5.35931 12.0006 5.49684C12.0006 5.63438 12.0432 5.76853 12.1226 5.88082C12.202 5.99311 12.3143 6.07802 12.444 6.12384L14.128 6.66984C14.641 6.84084 15.107 7.12984 15.488 7.51184ZM24.821 12.3588L25.739 12.6568L25.758 12.6608C25.8291 12.6855 25.8907 12.7317 25.9343 12.793C25.9779 12.8543 26.0013 12.9276 26.0013 13.0028C26.0013 13.0781 25.9779 13.1514 25.9343 13.2127C25.8907 13.274 25.8291 13.3202 25.758 13.3448L24.839 13.6438C24.5603 13.7371 24.3071 13.8938 24.0993 14.1015C23.8914 14.3092 23.7345 14.5623 23.641 14.8408L23.342 15.7588C23.3169 15.8295 23.2705 15.8906 23.2093 15.9338C23.1481 15.977 23.0749 16.0002 23 16.0002C22.9251 16.0002 22.8519 15.977 22.7907 15.9338C22.7295 15.8906 22.6831 15.8295 22.658 15.7588L22.359 14.8408C22.2668 14.561 22.1105 14.3065 21.9025 14.0978C21.6945 13.8891 21.4406 13.7319 21.161 13.6388L20.242 13.3408C20.1709 13.3162 20.1093 13.27 20.0657 13.2087C20.0221 13.1474 19.9987 13.0741 19.9987 12.9988C19.9987 12.9236 20.0221 12.8503 20.0657 12.789C20.1093 12.7277 20.1709 12.6815 20.242 12.6568L21.161 12.3578C21.4363 12.2622 21.6859 12.1045 21.8906 11.8969C22.0952 11.6894 22.2493 11.4375 22.341 11.1608L22.64 10.2428C22.6651 10.1722 22.7115 10.1111 22.7727 10.0679C22.8339 10.0247 22.9071 10.0015 22.982 10.0015C23.0569 10.0015 23.1301 10.0247 23.1913 10.0679C23.2525 10.1111 23.2989 10.1722 23.324 10.2428L23.622 11.1608C23.7149 11.4399 23.8717 11.6934 24.0799 11.9012C24.288 12.109 24.5418 12.2664 24.821 12.3588ZM12 3.00084H13.287L12 3.44084C11.5647 3.58215 11.1852 3.85749 10.9158 4.22748C10.6464 4.59747 10.5008 5.04316 10.5 5.50084C10.5096 5.94212 10.6536 6.36997 10.9126 6.72731C11.1717 7.08466 11.5336 7.3545 11.95 7.50084L13.66 8.06084C13.95 8.15384 14.214 8.31484 14.43 8.53084C14.43 8.56684 14.47 8.60284 14.514 8.64184C14.5422 8.66531 14.5676 8.6918 14.59 8.72084C14.6607 8.80818 14.722 8.90151 14.774 9.00084H6C5.73478 9.00084 5.48043 9.1062 5.29289 9.29374C5.10536 9.48127 5 9.73563 5 10.0008C5 10.2661 5.10536 10.5204 5.29289 10.708C5.48043 10.8955 5.73478 11.0008 6 11.0008H15.45C15.5565 11.3212 15.7366 11.6122 15.9759 11.8504C16.2152 12.0886 16.507 12.2673 16.8279 12.3723C17.1488 12.4774 17.4898 12.5057 17.8236 12.4551C18.1574 12.4044 18.4747 12.2763 18.75 12.0808C18.5931 12.3554 18.5071 12.6647 18.5 12.9808C18.5 13.3638 18.618 13.7378 18.84 14.0508C19.064 14.3638 19.378 14.6008 19.74 14.7308L20.74 15.0408C20.7933 15.0642 20.84 15.0975 20.88 15.1408C20.9242 15.1808 20.9556 15.233 20.97 15.2908L21.27 16.2008C21.4075 16.5909 21.6625 16.9287 22 17.1678V19.0008H15.75C14.888 19.0008 14.0614 19.3433 13.4519 19.9527C12.8424 20.5622 12.5 21.3889 12.5 22.2508V28.0008H3.25C2.38805 28.0008 1.5614 27.6584 0.951903 27.0489C0.34241 26.4394 0 25.6128 0 24.7508V6.25084C0 5.38889 0.34241 4.56224 0.951903 3.95275C1.5614 3.34325 2.38805 3.00084 3.25 3.00084H5V2.00084C5 1.73563 5.10536 1.48127 5.29289 1.29374C5.48043 1.1062 5.73478 1.00084 6 1.00084C6.26522 1.00084 6.51957 1.1062 6.70711 1.29374C6.89464 1.48127 7 1.73563 7 2.00084V3.00084H10V2.00084C10 1.73563 10.1054 1.48127 10.2929 1.29374C10.4804 1.1062 10.7348 1.00084 11 1.00084C11.2652 1.00084 11.5196 1.1062 11.7071 1.29374C11.8946 1.48127 12 1.73563 12 2.00084V3.00084ZM5 15.0008C5 15.2661 5.10536 15.5204 5.29289 15.708C5.48043 15.8955 5.73478 16.0008 6 16.0008H16C16.2652 16.0008 16.5196 15.8955 16.7071 15.708C16.8946 15.5204 17 15.2661 17 15.0008C17 14.7356 16.8946 14.4813 16.7071 14.2937C16.5196 14.1062 16.2652 14.0008 16 14.0008H6C5.73478 14.0008 5.48043 14.1062 5.29289 14.2937C5.10536 14.4813 5 14.7356 5 15.0008ZM6 19.0008C5.73478 19.0008 5.48043 19.1062 5.29289 19.2937C5.10536 19.4813 5 19.7356 5 20.0008C5 20.2661 5.10536 20.5204 5.29289 20.708C5.48043 20.8955 5.73478 21.0008 6 21.0008H10C10.2652 21.0008 10.5196 20.8955 10.7071 20.708C10.8946 20.5204 11 20.2661 11 20.0008C11 19.7356 10.8946 19.4813 10.7071 19.2937C10.5196 19.1062 10.2652 19.0008 10 19.0008H6ZM14.707 27.7078C14.6452 27.7697 14.5756 27.8231 14.5 27.8668V22.2508C14.5 21.5608 15.06 21.0008 15.75 21.0008H21.414L14.707 27.7078Z"/>
</mask>
<path d="M15.488 7.51184C15.8685 7.89548 16.1549 8.362 16.325 8.87484L16.873 10.5568C16.9184 10.687 17.0031 10.7998 17.1154 10.8796C17.2278 10.9594 17.3622 11.0023 17.5 11.0023C17.6378 11.0023 17.7722 10.9594 17.8846 10.8796C17.9969 10.7998 18.0816 10.687 18.127 10.5568L18.675 8.87484C18.8454 8.36328 19.1327 7.89846 19.514 7.51727C19.8954 7.13609 20.3604 6.84902 20.872 6.67884L22.556 6.13184C22.6857 6.08602 22.798 6.00111 22.8774 5.88882C22.9568 5.77653 22.9994 5.64238 22.9994 5.50484C22.9994 5.36731 22.9568 5.23316 22.8774 5.12087C22.798 5.00858 22.6857 4.92367 22.556 4.87784L22.522 4.86984L20.839 4.32284C20.3272 4.1528 19.862 3.86579 19.4805 3.4846C19.0989 3.1034 18.8115 2.63852 18.641 2.12684L18.094 0.444844C18.0484 0.314822 17.9635 0.202182 17.8511 0.122492C17.7387 0.042803 17.6043 0 17.4665 0C17.3287 0 17.1943 0.042803 17.0819 0.122492C16.9695 0.202182 16.8846 0.314822 16.839 0.444844L16.292 2.12684L16.278 2.16884C16.1069 2.66765 15.8243 3.12089 15.4517 3.49413C15.0792 3.86736 14.6265 4.15078 14.128 4.32284L12.444 4.86984C12.3143 4.91567 12.202 5.00058 12.1226 5.11287C12.0432 5.22516 12.0006 5.35931 12.0006 5.49684C12.0006 5.63438 12.0432 5.76853 12.1226 5.88082C12.202 5.99311 12.3143 6.07802 12.444 6.12384L14.128 6.66984C14.641 6.84084 15.107 7.12984 15.488 7.51184ZM24.821 12.3588L25.739 12.6568L25.758 12.6608C25.8291 12.6855 25.8907 12.7317 25.9343 12.793C25.9779 12.8543 26.0013 12.9276 26.0013 13.0028C26.0013 13.0781 25.9779 13.1514 25.9343 13.2127C25.8907 13.274 25.8291 13.3202 25.758 13.3448L24.839 13.6438C24.5603 13.7371 24.3071 13.8938 24.0993 14.1015C23.8914 14.3092 23.7345 14.5623 23.641 14.8408L23.342 15.7588C23.3169 15.8295 23.2705 15.8906 23.2093 15.9338C23.1481 15.977 23.0749 16.0002 23 16.0002C22.9251 16.0002 22.8519 15.977 22.7907 15.9338C22.7295 15.8906 22.6831 15.8295 22.658 15.7588L22.359 14.8408C22.2668 14.561 22.1105 14.3065 21.9025 14.0978C21.6945 13.8891 21.4406 13.7319 21.161 13.6388L20.242 13.3408C20.1709 13.3162 20.1093 13.27 20.0657 13.2087C20.0221 13.1474 19.9987 13.0741 19.9987 12.9988C19.9987 12.9236 20.0221 12.8503 20.0657 12.789C20.1093 12.7277 20.1709 12.6815 20.242 12.6568L21.161 12.3578C21.4363 12.2622 21.6859 12.1045 21.8906 11.8969C22.0952 11.6894 22.2493 11.4375 22.341 11.1608L22.64 10.2428C22.6651 10.1722 22.7115 10.1111 22.7727 10.0679C22.8339 10.0247 22.9071 10.0015 22.982 10.0015C23.0569 10.0015 23.1301 10.0247 23.1913 10.0679C23.2525 10.1111 23.2989 10.1722 23.324 10.2428L23.622 11.1608C23.7149 11.4399 23.8717 11.6934 24.0799 11.9012C24.288 12.109 24.5418 12.2664 24.821 12.3588ZM12 3.00084H13.287L12 3.44084C11.5647 3.58215 11.1852 3.85749 10.9158 4.22748C10.6464 4.59747 10.5008 5.04316 10.5 5.50084C10.5096 5.94212 10.6536 6.36997 10.9126 6.72731C11.1717 7.08466 11.5336 7.3545 11.95 7.50084L13.66 8.06084C13.95 8.15384 14.214 8.31484 14.43 8.53084C14.43 8.56684 14.47 8.60284 14.514 8.64184C14.5422 8.66531 14.5676 8.6918 14.59 8.72084C14.6607 8.80818 14.722 8.90151 14.774 9.00084H6C5.73478 9.00084 5.48043 9.1062 5.29289 9.29374C5.10536 9.48127 5 9.73563 5 10.0008C5 10.2661 5.10536 10.5204 5.29289 10.708C5.48043 10.8955 5.73478 11.0008 6 11.0008H15.45C15.5565 11.3212 15.7366 11.6122 15.9759 11.8504C16.2152 12.0886 16.507 12.2673 16.8279 12.3723C17.1488 12.4774 17.4898 12.5057 17.8236 12.4551C18.1574 12.4044 18.4747 12.2763 18.75 12.0808C18.5931 12.3554 18.5071 12.6647 18.5 12.9808C18.5 13.3638 18.618 13.7378 18.84 14.0508C19.064 14.3638 19.378 14.6008 19.74 14.7308L20.74 15.0408C20.7933 15.0642 20.84 15.0975 20.88 15.1408C20.9242 15.1808 20.9556 15.233 20.97 15.2908L21.27 16.2008C21.4075 16.5909 21.6625 16.9287 22 17.1678V19.0008H15.75C14.888 19.0008 14.0614 19.3433 13.4519 19.9527C12.8424 20.5622 12.5 21.3889 12.5 22.2508V28.0008H3.25C2.38805 28.0008 1.5614 27.6584 0.951903 27.0489C0.34241 26.4394 0 25.6128 0 24.7508V6.25084C0 5.38889 0.34241 4.56224 0.951903 3.95275C1.5614 3.34325 2.38805 3.00084 3.25 3.00084H5V2.00084C5 1.73563 5.10536 1.48127 5.29289 1.29374C5.48043 1.1062 5.73478 1.00084 6 1.00084C6.26522 1.00084 6.51957 1.1062 6.70711 1.29374C6.89464 1.48127 7 1.73563 7 2.00084V3.00084H10V2.00084C10 1.73563 10.1054 1.48127 10.2929 1.29374C10.4804 1.1062 10.7348 1.00084 11 1.00084C11.2652 1.00084 11.5196 1.1062 11.7071 1.29374C11.8946 1.48127 12 1.73563 12 2.00084V3.00084ZM5 15.0008C5 15.2661 5.10536 15.5204 5.29289 15.708C5.48043 15.8955 5.73478 16.0008 6 16.0008H16C16.2652 16.0008 16.5196 15.8955 16.7071 15.708C16.8946 15.5204 17 15.2661 17 15.0008C17 14.7356 16.8946 14.4813 16.7071 14.2937C16.5196 14.1062 16.2652 14.0008 16 14.0008H6C5.73478 14.0008 5.48043 14.1062 5.29289 14.2937C5.10536 14.4813 5 14.7356 5 15.0008ZM6 19.0008C5.73478 19.0008 5.48043 19.1062 5.29289 19.2937C5.10536 19.4813 5 19.7356 5 20.0008C5 20.2661 5.10536 20.5204 5.29289 20.708C5.48043 20.8955 5.73478 21.0008 6 21.0008H10C10.2652 21.0008 10.5196 20.8955 10.7071 20.708C10.8946 20.5204 11 20.2661 11 20.0008C11 19.7356 10.8946 19.4813 10.7071 19.2937C10.5196 19.1062 10.2652 19.0008 10 19.0008H6ZM14.707 27.7078C14.6452 27.7697 14.5756 27.8231 14.5 27.8668V22.2508C14.5 21.5608 15.06 21.0008 15.75 21.0008H21.414L14.707 27.7078Z" fill="#6720C2" stroke="#6720C2" mask="url(#path-1-inside-1_447_1580)"/>
</svg>
