<svg width="36" height="36" viewBox="0 0 36 36" fill="none" xmlns="http://www.w3.org/2000/svg">
<path d="M6.80039 24.4L14.8004 19.6L6.80039 24.4ZM21.2004 16.4L29.2004 11.6L21.2004 16.4ZM18.0004 6.79996V14.8V6.79996ZM18.0004 21.2V29.2V21.2ZM6.80039 11.6L14.8004 16.4L6.80039 11.6ZM21.2004 19.6L29.2004 24.4L21.2004 19.6ZM31.6004 13.2V22V13.2ZM20.4004 31.6L29.2004 26.8L20.4004 31.6ZM6.00039 26.8L15.6004 31.6L6.00039 26.8ZM4.40039 22.8V13.2V22.8ZM6.00039 9.19996L15.6004 4.39996L6.00039 9.19996ZM30.0004 9.19996L20.4004 4.39996L30.0004 9.19996Z" fill="#6720C2"/>
<path d="M6.80039 24.4L14.8004 19.6M21.2004 16.4L29.2004 11.6M18.0004 6.79996V14.8M18.0004 21.2V29.2M6.80039 11.6L14.8004 16.4M21.2004 19.6L29.2004 24.4M31.6004 13.2V22M20.4004 31.6L29.2004 26.8M6.00039 26.8L15.6004 31.6M4.40039 22.8V13.2M6.00039 9.19996L15.6004 4.39996M30.0004 9.19996L20.4004 4.39996" stroke="#6720C2" stroke-width="2.5" stroke-linecap="round" stroke-linejoin="round"/>
<path d="M17.9996 6.8C19.3251 6.8 20.3996 5.72548 20.3996 4.4C20.3996 3.07452 19.3251 2 17.9996 2C16.6741 2 15.5996 3.07452 15.5996 4.4C15.5996 5.72548 16.6741 6.8 17.9996 6.8Z" fill="#6720C2" stroke="#6720C2" stroke-width="2.5" stroke-linecap="round" stroke-linejoin="round"/>
<path d="M17.9996 34C19.3251 34 20.3996 32.9255 20.3996 31.6C20.3996 30.2746 19.3251 29.2 17.9996 29.2C16.6741 29.2 15.5996 30.2746 15.5996 31.6C15.5996 32.9255 16.6741 34 17.9996 34Z" fill="#6720C2" stroke="#6720C2" stroke-width="2.5" stroke-linecap="round" stroke-linejoin="round"/>
<path d="M4.4 13.2C5.72548 13.2 6.8 12.1254 6.8 10.8C6.8 9.47448 5.72548 8.39996 4.4 8.39996C3.07452 8.39996 2 9.47448 2 10.8C2 12.1254 3.07452 13.2 4.4 13.2Z" fill="#6720C2" stroke="#6720C2" stroke-width="2.5" stroke-linecap="round" stroke-linejoin="round"/>
<path d="M31.5992 13.2C32.9247 13.2 33.9992 12.1254 33.9992 10.8C33.9992 9.47448 32.9247 8.39996 31.5992 8.39996C30.2737 8.39996 29.1992 9.47448 29.1992 10.8C29.1992 12.1254 30.2737 13.2 31.5992 13.2Z" fill="#6720C2" stroke="#6720C2" stroke-width="2.5" stroke-linecap="round" stroke-linejoin="round"/>
<path d="M31.5992 27.6C32.9247 27.6 33.9992 26.5254 33.9992 25.2C33.9992 23.8745 32.9247 22.8 31.5992 22.8C30.2737 22.8 29.1992 23.8745 29.1992 25.2C29.1992 26.5254 30.2737 27.6 31.5992 27.6Z" fill="#6720C2" stroke="#6720C2" stroke-width="2.5" stroke-linecap="round" stroke-linejoin="round"/>
<path d="M4.4 27.6C5.72548 27.6 6.8 26.5254 6.8 25.2C6.8 23.8745 5.72548 22.8 4.4 22.8C3.07452 22.8 2 23.8745 2 25.2C2 26.5254 3.07452 27.6 4.4 27.6Z" fill="#6720C2" stroke="#6720C2" stroke-width="2.5" stroke-linecap="round" stroke-linejoin="round"/>
<path d="M18.0008 14.4L21.2008 16.2V19.8L18.0008 21.6L14.8008 19.8V16.2L18.0008 14.4Z" fill="#6720C2" stroke="#6720C2" stroke-width="2.5" stroke-linecap="round" stroke-linejoin="round"/>
</svg>
