<svg width="32" height="32" viewBox="0 0 32 32" fill="none" xmlns="http://www.w3.org/2000/svg">
<path fill-rule="evenodd" clip-rule="evenodd" d="M22.4569 1.45829C22.8752 -0.452564 25.5975 -0.463993 26.034 1.44458L26.0523 1.53372L26.0935 1.71201C26.5963 3.84686 28.3243 5.47658 30.4866 5.85372C32.4798 6.20115 32.4798 9.06287 30.4866 9.41029C29.4238 9.59649 28.4395 10.092 27.6569 10.8348C26.8742 11.5776 26.328 12.5346 26.0866 13.5863L26.0318 13.8194C25.5975 15.728 22.8775 15.7166 22.4569 13.8057L22.4135 13.6046C22.1827 12.5483 21.6424 11.5847 20.8616 10.8368C20.0807 10.0889 19.0947 9.5907 18.0295 9.40572C16.0409 9.06058 16.0409 6.20344 18.0295 5.85829C19.0909 5.67408 20.0738 5.17887 20.8534 4.43542C21.6331 3.69198 22.1744 2.73378 22.4089 1.68229L22.4409 1.53144L22.4569 1.45829ZM24.1186 17.728C23.0299 17.7046 21.9898 17.273 21.2043 16.5189C21.0336 16.6346 20.8837 16.7783 20.7609 16.944C19.7323 18.3063 18.5278 19.6983 17.1655 21.0583C16.1323 22.0914 15.0855 23.0309 14.0523 23.8697C13.0192 23.0309 11.9723 22.0914 10.9392 21.0583C9.94977 20.0698 9.01141 19.0315 8.12775 17.9474C8.96661 16.912 9.90832 15.8674 10.9392 14.8343C12.2245 13.5408 13.5994 12.3393 15.0535 11.2389C15.2038 11.1286 15.3364 10.996 15.4466 10.8457C15.0121 10.4495 14.664 9.96797 14.4241 9.43113C14.1842 8.89428 14.0576 8.31371 14.0523 7.72572C11.81 6.15544 9.59289 4.99201 7.61347 4.38629C5.46947 3.73029 2.95518 3.55429 1.30718 5.20001C0.239751 6.26972 -0.0505345 7.72344 0.0317512 9.10629C0.114037 10.4914 0.578037 12.0137 1.27975 13.5589C1.99329 15.0975 2.84799 16.5667 3.83289 17.9474C2.84824 19.3268 1.99354 20.7944 1.27975 22.3314C0.578037 23.8766 0.114037 25.3989 0.0317512 26.784C-0.0505345 28.1692 0.237466 29.6206 1.30718 30.6903C2.37689 31.76 3.83061 32.048 5.21347 31.9657C6.59632 31.8812 8.1209 31.4194 9.66604 30.7177C11.0603 30.0846 12.5438 29.2206 14.0546 28.1646C15.5632 29.2206 17.0443 30.0846 18.4409 30.7177C19.9838 31.4194 21.5083 31.8834 22.8935 31.9657C24.2786 32.048 25.7278 31.7577 26.7975 30.688C28.4455 29.0423 28.2695 26.528 27.6135 24.384C26.9872 22.3406 25.7689 20.0434 24.1186 17.728ZM6.61004 7.66401C7.92661 8.06629 9.4969 8.82972 11.1975 9.93601C9.34064 11.5111 7.61602 13.2358 6.04089 15.0926C5.42174 14.15 4.8732 13.163 4.39975 12.1394C3.79861 10.8137 3.50375 9.71658 3.45347 8.90058C3.40547 8.08001 3.60661 7.75086 3.73232 7.62515C3.93804 7.41944 4.69689 7.08115 6.61004 7.66401ZM4.39975 23.7532C4.82032 22.8274 5.37118 21.8332 6.04089 20.8C7.61674 22.6569 9.34214 24.3816 11.1998 25.9566C10.258 26.5764 9.2717 27.1257 8.24889 27.6C6.92318 28.2012 5.82604 28.496 5.01004 28.5463C4.18718 28.5943 3.86032 28.3932 3.73461 28.2674C3.60889 28.1417 3.40775 27.8103 3.45575 26.992C3.50604 26.176 3.79861 25.0789 4.40204 23.7532H4.39975ZM19.858 27.6C18.836 27.1256 17.8505 26.5763 16.9095 25.9566C18.7647 24.3813 20.4878 22.6566 22.0615 20.8C23.1655 22.5029 23.9289 24.0732 24.3312 25.3897C24.9163 27.3006 24.578 28.0617 24.3723 28.2674C24.2443 28.3932 23.9152 28.5943 23.0969 28.544C22.2786 28.4983 21.1838 28.2012 19.858 27.6ZM11.7666 17.9474C11.7666 17.3412 12.0074 16.7598 12.4361 16.3312C12.8647 15.9025 13.4461 15.6617 14.0523 15.6617C14.6585 15.6617 15.2399 15.9025 15.6686 16.3312C16.0972 16.7598 16.338 17.3412 16.338 17.9474C16.338 18.5536 16.0972 19.135 15.6686 19.5637C15.2399 19.9923 14.6585 20.2332 14.0523 20.2332C13.4461 20.2332 12.8647 19.9923 12.4361 19.5637C12.0074 19.135 11.7666 18.5536 11.7666 17.9474Z" fill="#6720C2"/>
</svg>
