<svg width="36" height="36" viewBox="0 0 36 36" fill="none" xmlns="http://www.w3.org/2000/svg">
<path d="M32.8 7.6C32.4817 7.6 32.1765 7.47357 31.9515 7.24853C31.7264 7.02348 31.6 6.71826 31.6 6.4C31.6 6.08174 31.7264 5.77652 31.9515 5.55147C32.1765 5.32643 32.4817 5.2 32.8 5.2C33.1183 5.2 33.4235 5.32643 33.6485 5.55147C33.8736 5.77652 34 6.08174 34 6.4C34 6.71826 33.8736 7.02348 33.6485 7.24853C33.4235 7.47357 33.1183 7.6 32.8 7.6ZM32.8 7.6V13.6C32.8 14.7168 32.8 15.2752 32.6624 15.728C32.5098 16.2317 32.2354 16.6901 31.8634 17.0624C31.4913 17.4347 31.0332 17.7095 30.5296 17.8624C30.0752 18 29.5168 18 28.4 18M3.2 28.4C3.51826 28.4 3.82348 28.5264 4.04853 28.7515C4.27357 28.9765 4.4 29.2817 4.4 29.6C4.4 29.9183 4.27357 30.2235 4.04853 30.4485C3.82348 30.6736 3.51826 30.8 3.2 30.8C2.88174 30.8 2.57652 30.6736 2.35147 30.4485C2.12643 30.2235 2 29.9183 2 29.6C2 29.2817 2.12643 28.9765 2.35147 28.7515C2.57652 28.5264 2.88174 28.4 3.2 28.4ZM3.2 28.4V22.4C3.2 21.2832 3.2 20.7248 3.3376 20.272C3.49016 19.7683 3.76461 19.3099 4.13664 18.9376C4.50867 18.5653 4.96678 18.2905 5.4704 18.1376C5.9248 18 6.4832 18 7.6 18M7.6 3.2C7.6 3.51826 7.47357 3.82348 7.24853 4.04853C7.02348 4.27357 6.71826 4.4 6.4 4.4C6.08174 4.4 5.77652 4.27357 5.55147 4.04853C5.32643 3.82348 5.2 3.51826 5.2 3.2C5.2 2.88174 5.32643 2.57652 5.55147 2.35147C5.77652 2.12643 6.08174 2 6.4 2C6.71826 2 7.02348 2.12643 7.24853 2.35147C7.47357 2.57652 7.6 2.88174 7.6 3.2ZM7.6 3.2H13.6C14.7168 3.2 15.2752 3.2 15.728 3.3376C16.2317 3.49016 16.6901 3.76461 17.0624 4.13664C17.4347 4.50867 17.7095 4.96678 17.8624 5.4704C18 5.9248 18 6.4832 18 7.6M28.4 32.8C28.4 32.4817 28.5264 32.1765 28.7515 31.9515C28.9765 31.7264 29.2817 31.6 29.6 31.6C29.9183 31.6 30.2235 31.7264 30.4485 31.9515C30.6736 32.1765 30.8 32.4817 30.8 32.8C30.8 33.1183 30.6736 33.4235 30.4485 33.6485C30.2235 33.8736 29.9183 34 29.6 34C29.2817 34 28.9765 33.8736 28.7515 33.6485C28.5264 33.4235 28.4 33.1183 28.4 32.8ZM28.4 32.8H22.4C21.2832 32.8 20.7248 32.8 20.272 32.6624C19.7683 32.5098 19.3099 32.2354 18.9376 31.8634C18.5653 31.4913 18.2905 31.0332 18.1376 30.5296C18 30.0752 18 29.5168 18 28.4" stroke="#6720C2" stroke-width="2.5" stroke-linecap="round" stroke-linejoin="round"/>
<path d="M7.67871 17.9216C7.67871 13.0192 7.67871 10.568 9.20191 9.04481C10.7251 7.52161 13.1763 7.52161 18.0787 7.52161C22.9811 7.52161 25.4323 7.52161 26.9555 9.04481C28.4787 10.568 28.4787 13.0192 28.4787 17.9216C28.4787 22.824 28.4787 25.2752 26.9555 26.7984C25.4323 28.3216 22.9811 28.3216 18.0787 28.3216C13.1763 28.3216 10.7251 28.3216 9.20191 26.7984C7.67871 25.2752 7.67871 22.824 7.67871 17.9216Z" stroke="#6720C2" stroke-width="2.5" stroke-linecap="round" stroke-linejoin="round"/>
<path d="M18.7974 22L16.4614 14.7664C16.3804 14.5381 16.2295 14.3412 16.0302 14.2036C15.8308 14.066 15.5932 13.9948 15.351 14C15.1092 13.9951 14.8719 14.0665 14.6729 14.2041C14.4738 14.3416 14.3232 14.5384 14.2422 14.7664L11.9062 22M22.7974 14V22M12.7654 19.6H17.9366" stroke="#6720C2" stroke-width="2.5" stroke-linecap="round" stroke-linejoin="round"/>
</svg>
