<svg width="36" height="36" viewBox="0 0 36 36" fill="none" xmlns="http://www.w3.org/2000/svg">
<path d="M6.80039 24.4L14.8004 19.6M21.2004 16.4L29.2004 11.6M18.0004 6.79996V14.8M18.0004 21.2V29.2M6.80039 11.6L14.8004 16.4M21.2004 19.6L29.2004 24.4M31.6004 13.2V22M20.4004 31.6L29.2004 26.8M6.00039 26.8L15.6004 31.6M4.40039 22.8V13.2M6.00039 9.19996L15.6004 4.39996M30.0004 9.19996L20.4004 4.39996" stroke="white" stroke-width="2.5" stroke-linecap="round" stroke-linejoin="round"/>
<path d="M17.9996 6.8C19.3251 6.8 20.3996 5.72548 20.3996 4.4C20.3996 3.07452 19.3251 2 17.9996 2C16.6741 2 15.5996 3.07452 15.5996 4.4C15.5996 5.72548 16.6741 6.8 17.9996 6.8Z" stroke="white" stroke-width="2.5" stroke-linecap="round" stroke-linejoin="round"/>
<path d="M17.9996 34.0001C19.3251 34.0001 20.3996 32.9256 20.3996 31.6001C20.3996 30.2746 19.3251 29.2001 17.9996 29.2001C16.6741 29.2001 15.5996 30.2746 15.5996 31.6001C15.5996 32.9256 16.6741 34.0001 17.9996 34.0001Z" stroke="white" stroke-width="2.5" stroke-linecap="round" stroke-linejoin="round"/>
<path d="M4.4 13.2C5.72548 13.2 6.8 12.1254 6.8 10.8C6.8 9.47448 5.72548 8.39996 4.4 8.39996C3.07452 8.39996 2 9.47448 2 10.8C2 12.1254 3.07452 13.2 4.4 13.2Z" stroke="white" stroke-width="2.5" stroke-linecap="round" stroke-linejoin="round"/>
<path d="M31.5992 13.2C32.9247 13.2 33.9992 12.1254 33.9992 10.8C33.9992 9.47448 32.9247 8.39996 31.5992 8.39996C30.2737 8.39996 29.1992 9.47448 29.1992 10.8C29.1992 12.1254 30.2737 13.2 31.5992 13.2Z" stroke="white" stroke-width="2.5" stroke-linecap="round" stroke-linejoin="round"/>
<path d="M31.5992 27.5999C32.9247 27.5999 33.9992 26.5254 33.9992 25.1999C33.9992 23.8744 32.9247 22.7999 31.5992 22.7999C30.2737 22.7999 29.1992 23.8744 29.1992 25.1999C29.1992 26.5254 30.2737 27.5999 31.5992 27.5999Z" stroke="white" stroke-width="2.5" stroke-linecap="round" stroke-linejoin="round"/>
<path d="M4.4 27.5999C5.72548 27.5999 6.8 26.5254 6.8 25.1999C6.8 23.8744 5.72548 22.7999 4.4 22.7999C3.07452 22.7999 2 23.8744 2 25.1999C2 26.5254 3.07452 27.5999 4.4 27.5999Z" stroke="white" stroke-width="2.5" stroke-linecap="round" stroke-linejoin="round"/>
<path d="M18.0008 14.4L21.2008 16.2V19.8L18.0008 21.6L14.8008 19.8V16.2L18.0008 14.4Z" stroke="white" stroke-width="2.5" stroke-linecap="round" stroke-linejoin="round"/>
</svg>
